<?xml version="1.0" standalone="no"?>
<!DOCTYPE svg PUBLIC "-//W3C//DTD SVG 20010904//EN"
 "http://www.w3.org/TR/2001/REC-SVG-20010904/DTD/svg10.dtd">
<svg version="1.0" xmlns="http://www.w3.org/2000/svg"
 width="218.000000pt" height="231.000000pt" viewBox="0 0 218.000000 231.000000"
 preserveAspectRatio="xMidYMid meet">

<g transform="translate(0.000000,231.000000) scale(0.100000,-0.100000)"
fill="#000000" stroke="none">
<path d="M545 2115 c-286 -102 -525 -187 -531 -189 -7 -3 -7 -36 3 -113 14
-121 80 -689 119 -1033 14 -124 28 -236 33 -249 5 -19 102 -77 455 -272 l448
-249 29 16 c50 26 884 486 888 490 2 2 21 140 42 307 21 166 61 482 89 701 39
313 47 402 37 408 -6 4 -32 14 -57 22 -25 8 -265 89 -533 180 -269 91 -492
166 -495 166 -4 -1 -241 -84 -527 -185z m884 -826 c187 -399 341 -729 341
-733 0 -3 -53 -6 -118 -6 l-117 0 -74 170 -74 170 -297 0 -297 0 -48 -117
c-26 -65 -56 -139 -67 -164 l-19 -46 -67 -7 c-98 -9 -182 -7 -182 3 0 6 43
106 96 223 53 117 197 438 321 713 256 569 242 540 252 529 5 -5 162 -336 350
-735z"/>
<path d="M978 1322 l-96 -227 104 -3 c57 -1 151 -1 208 0 l103 3 -107 223
c-59 122 -109 225 -112 227 -2 3 -48 -97 -100 -223z"/>
</g>
</svg>
