<?xml version="1.0" encoding="UTF-8"?>
<!DOCTYPE svg PUBLIC "-//W3C//DTD SVG 1.1//EN" "http://www.w3.org/Graphics/SVG/1.1/DTD/svg11.dtd">
<svg xmlns="http://www.w3.org/2000/svg" version="1.1" width="960px" height="1080px" style="shape-rendering:geometricPrecision; text-rendering:geometricPrecision; image-rendering:optimizeQuality; fill-rule:evenodd; clip-rule:evenodd" xmlns:xlink="http://www.w3.org/1999/xlink">
<g><path style="opacity:1" fill="#9c76da" d="M 465.5,-0.5 C 474.167,-0.5 482.833,-0.5 491.5,-0.5C 504.471,1.88294 516.805,6.38294 528.5,13C 655.833,86.3333 783.167,159.667 910.5,233C 925.684,241.685 937.684,253.518 946.5,268.5C 893.534,298.316 840.868,328.649 788.5,359.5C 738.697,274.585 666.03,219.085 570.5,193C 446.344,164.539 336.344,191.873 240.5,275C 145.677,367.143 109.51,478.643 132,609.5C 139.75,646.587 152.916,681.587 171.5,714.5C 117.969,745.431 64.3021,776.098 10.5,806.5C 4.84537,796.887 1.17871,786.554 -0.5,775.5C -0.5,617.5 -0.5,459.5 -0.5,301.5C 3.76539,272.474 18.4321,250.307 43.5,235C 172.663,160.919 301.663,86.586 430.5,12C 441.749,6.30836 453.416,2.14169 465.5,-0.5 Z"/></g>
<g><path style="opacity:1" fill="#f9f9f9" d="M 788.5,359.5 C 737.139,388.845 685.806,418.179 634.5,447.5C 591.03,382.107 530.03,353.941 451.5,363C 379.693,378.14 332.526,420.64 310,490.5C 299.291,530.395 301.958,569.395 318,607.5C 320.417,614.005 323.583,620.005 327.5,625.5C 356.529,675.55 399.862,705.05 457.5,714C 528.141,720.582 584.641,695.748 627,639.5C 629.523,635.112 632.023,630.778 634.5,626.5C 686.666,655.746 738.333,685.746 789.5,716.5C 731.754,812.426 647.421,870.26 536.5,890C 410.794,906.103 304.294,868.603 217,777.5C 199.678,758.019 184.512,737.019 171.5,714.5C 152.916,681.587 139.75,646.587 132,609.5C 109.51,478.643 145.677,367.143 240.5,275C 336.344,191.873 446.344,164.539 570.5,193C 666.03,219.085 738.697,274.585 788.5,359.5 Z"/></g>
<g><path style="opacity:1" fill="#38008f" d="M 946.5,268.5 C 953.224,280.18 957.057,292.847 958,306.5C 958.667,460.833 958.667,615.167 958,769.5C 957.243,783.217 953.41,795.884 946.5,807.5C 894.366,776.929 842.032,746.596 789.5,716.5C 738.333,685.746 686.666,655.746 634.5,626.5C 583.047,596.362 531.38,566.695 479.5,537.5C 531.003,507.248 582.67,477.248 634.5,447.5C 685.806,418.179 737.139,388.845 788.5,359.5C 840.868,328.649 893.534,298.316 946.5,268.5 Z"/></g>
<g><path style="opacity:1" fill="#9c76d9" d="M 634.5,447.5 C 582.67,477.248 531.003,507.248 479.5,537.5C 430.059,565.39 380.725,593.557 331.5,622C 329.907,622.949 328.574,624.115 327.5,625.5C 323.583,620.005 320.417,614.005 318,607.5C 301.958,569.395 299.291,530.395 310,490.5C 332.526,420.64 379.693,378.14 451.5,363C 530.03,353.941 591.03,382.107 634.5,447.5 Z"/></g>
<g><path style="opacity:1" fill="#f9f9f9" d="M 756.5,485.5 C 773.325,486.497 790.325,486.83 807.5,486.5C 807.5,469.5 807.5,452.5 807.5,435.5C 815.833,435.5 824.167,435.5 832.5,435.5C 832.5,452.5 832.5,469.5 832.5,486.5C 849.167,486.5 865.833,486.5 882.5,486.5C 882.5,494.833 882.5,503.167 882.5,511.5C 865.833,511.5 849.167,511.5 832.5,511.5C 832.5,528.167 832.5,544.833 832.5,561.5C 849.342,561.17 866.008,561.503 882.5,562.5C 882.5,570.5 882.5,578.5 882.5,586.5C 865.658,586.17 848.992,586.503 832.5,587.5C 832.5,604.167 832.5,620.833 832.5,637.5C 824.167,637.5 815.833,637.5 807.5,637.5C 807.5,620.5 807.5,603.5 807.5,586.5C 790.325,586.17 773.325,586.503 756.5,587.5C 756.5,604.167 756.5,620.833 756.5,637.5C 748.167,637.5 739.833,637.5 731.5,637.5C 731.5,620.833 731.5,604.167 731.5,587.5C 715.008,586.503 698.342,586.17 681.5,586.5C 681.5,578.5 681.5,570.5 681.5,562.5C 698.342,562.83 715.008,562.497 731.5,561.5C 731.5,544.833 731.5,528.167 731.5,511.5C 715.008,510.503 698.342,510.17 681.5,510.5C 681.5,502.5 681.5,494.5 681.5,486.5C 698.167,486.5 714.833,486.5 731.5,486.5C 731.5,469.5 731.5,452.5 731.5,435.5C 739.833,435.5 748.167,435.5 756.5,435.5C 756.5,452.167 756.5,468.833 756.5,485.5 Z"/></g>
<g><path style="opacity:1" fill="#7f5db5" d="M 807.5,435.5 C 807.5,452.5 807.5,469.5 807.5,486.5C 790.325,486.83 773.325,486.497 756.5,485.5C 773.167,485.5 789.833,485.5 806.5,485.5C 806.17,468.658 806.503,451.992 807.5,435.5 Z"/></g>
<g><path style="opacity:1" fill="#ddd4e8" d="M 681.5,486.5 C 681.5,494.5 681.5,502.5 681.5,510.5C 698.342,510.17 715.008,510.503 731.5,511.5C 714.5,511.5 697.5,511.5 680.5,511.5C 680.174,502.983 680.507,494.65 681.5,486.5 Z"/></g>
<g><path style="opacity:1" fill="#38008f" d="M 806.5,511.5 C 806.5,528.167 806.5,544.833 806.5,561.5C 789.833,561.5 773.167,561.5 756.5,561.5C 756.5,544.833 756.5,528.167 756.5,511.5C 773.167,511.5 789.833,511.5 806.5,511.5 Z"/></g>
<g><path style="opacity:1" fill="#250064" d="M 479.5,537.5 C 531.38,566.695 583.047,596.362 634.5,626.5C 632.023,630.778 629.523,635.112 627,639.5C 584.641,695.748 528.141,720.582 457.5,714C 399.862,705.05 356.529,675.55 327.5,625.5C 328.574,624.115 329.907,622.949 331.5,622C 380.725,593.557 430.059,565.39 479.5,537.5 Z"/></g>
<g><path style="opacity:1" fill="#9c7fc6" d="M 806.5,511.5 C 807.497,528.325 807.83,545.325 807.5,562.5C 790.325,562.83 773.325,562.497 756.5,561.5C 773.167,561.5 789.833,561.5 806.5,561.5C 806.5,544.833 806.5,528.167 806.5,511.5 Z"/></g>
<g><path style="opacity:1" fill="#b6a1d6" d="M 731.5,561.5 C 715.008,562.497 698.342,562.83 681.5,562.5C 681.5,570.5 681.5,578.5 681.5,586.5C 698.342,586.17 715.008,586.503 731.5,587.5C 714.5,587.5 697.5,587.5 680.5,587.5C 680.5,578.833 680.5,570.167 680.5,561.5C 697.5,561.5 714.5,561.5 731.5,561.5 Z"/></g>
<g><path style="opacity:1" fill="#ae96d2" d="M 882.5,562.5 C 883.493,570.65 883.826,578.983 883.5,587.5C 866.5,587.5 849.5,587.5 832.5,587.5C 848.992,586.503 865.658,586.17 882.5,586.5C 882.5,578.5 882.5,570.5 882.5,562.5 Z"/></g>
<g><path style="opacity:1" fill="#9676c1" d="M 756.5,587.5 C 773.325,586.503 790.325,586.17 807.5,586.5C 807.5,603.5 807.5,620.5 807.5,637.5C 806.503,621.008 806.17,604.342 806.5,587.5C 789.833,587.5 773.167,587.5 756.5,587.5 Z"/></g>
<g><path style="opacity:1" fill="#250064" d="M 171.5,714.5 C 184.512,737.019 199.678,758.019 217,777.5C 304.294,868.603 410.794,906.103 536.5,890C 647.421,870.26 731.754,812.426 789.5,716.5C 842.032,746.596 894.366,776.929 946.5,807.5C 942.863,815.25 937.863,822.083 931.5,828C 922.032,836.237 911.698,843.237 900.5,849C 776.909,919.6 653.575,990.6 530.5,1062C 495.85,1082.54 461.183,1082.54 426.5,1062C 300.16,988.495 173.493,915.495 46.5,843C 30.9312,834.265 18.9312,822.098 10.5,806.5C 64.3021,776.098 117.969,745.431 171.5,714.5 Z"/></g>
</svg>
