<?xml version="1.0" encoding="UTF-8"?>
<!DOCTYPE svg PUBLIC "-//W3C//DTD SVG 1.1//EN" "http://www.w3.org/Graphics/SVG/1.1/DTD/svg11.dtd">
<svg xmlns="http://www.w3.org/2000/svg" version="1.1" width="1920px" height="2711px" style="shape-rendering:geometricPrecision; text-rendering:geometricPrecision; image-rendering:optimizeQuality; fill-rule:evenodd; clip-rule:evenodd" xmlns:xlink="http://www.w3.org/1999/xlink">
<g><path style="opacity:1" fill="#000000" d="M 450.5,-0.5 C 547.833,-0.5 645.167,-0.5 742.5,-0.5C 742.5,40.1667 742.5,80.8333 742.5,121.5C 686.167,121.5 629.833,121.5 573.5,121.5C 573.5,161.833 573.5,202.167 573.5,242.5C 629.833,242.5 686.167,242.5 742.5,242.5C 742.5,283.5 742.5,324.5 742.5,365.5C 645.167,365.5 547.833,365.5 450.5,365.5C 450.5,243.5 450.5,121.5 450.5,-0.5 Z"/></g>
<g><path style="opacity:1" fill="#000000" d="M 800.5,-0.5 C 897.833,-0.5 995.167,-0.5 1092.5,-0.5C 1092.5,34.8333 1092.5,70.1667 1092.5,105.5C 1035.83,105.5 979.167,105.5 922.5,105.5C 922.5,112.5 922.5,119.5 922.5,126.5C 979.167,126.5 1035.83,126.5 1092.5,126.5C 1092.5,207.833 1092.5,289.167 1092.5,370.5C 995.167,370.5 897.833,370.5 800.5,370.5C 800.5,333.167 800.5,295.833 800.5,258.5C 856.833,258.5 913.167,258.5 969.5,258.5C 969.5,251.833 969.5,245.167 969.5,238.5C 913.167,238.5 856.833,238.5 800.5,238.5C 800.5,158.833 800.5,79.1667 800.5,-0.5 Z"/></g>
<g><path style="opacity:1" fill="#000000" d="M 1149.5,-0.5 C 1246.83,-0.5 1344.17,-0.5 1441.5,-0.5C 1441.5,34.8333 1441.5,70.1667 1441.5,105.5C 1385.17,105.5 1328.83,105.5 1272.5,105.5C 1272.5,112.5 1272.5,119.5 1272.5,126.5C 1328.83,126.5 1385.17,126.5 1441.5,126.5C 1441.5,207.833 1441.5,289.167 1441.5,370.5C 1344.17,370.5 1246.83,370.5 1149.5,370.5C 1149.5,333.167 1149.5,295.833 1149.5,258.5C 1205.83,258.5 1262.17,258.5 1318.5,258.5C 1318.5,251.833 1318.5,245.167 1318.5,238.5C 1262.17,238.5 1205.83,238.5 1149.5,238.5C 1149.5,158.833 1149.5,79.1667 1149.5,-0.5 Z"/></g>
<g><path style="opacity:1" fill="#254be1" d="M -0.5,531.5 C 639.5,531.5 1279.5,531.5 1919.5,531.5C 1919.5,535.5 1919.5,539.5 1919.5,543.5C 1860.9,1192.97 1802.9,1842.63 1745.5,2492.5C 1482.94,2564.72 1220.61,2637.39 958.5,2710.5C 958.167,2710.5 957.833,2710.5 957.5,2710.5C 696.434,2637.26 435.101,2564.59 173.5,2492.5C 115.968,1842.65 57.9675,1192.98 -0.5,543.5C -0.5,539.5 -0.5,535.5 -0.5,531.5 Z"/></g>
<g><path style="opacity:1" fill="#2564ed" d="M 957.5,2293.5 C 957.833,2293.5 958.167,2293.5 958.5,2293.5C 1122.78,2248.01 1287.11,2202.68 1451.5,2157.5C 1487.61,1749.13 1523.95,1340.8 1560.5,932.5C 1360.17,932.5 1159.83,932.5 959.5,932.5C 959.5,852.5 959.5,772.5 959.5,692.5C 1220.83,692.5 1482.17,692.5 1743.5,692.5C 1694.48,1250.2 1644.98,1807.87 1595,2365.5C 1594.48,2366.52 1593.65,2367.18 1592.5,2367.5C 1381.77,2425.58 1171.1,2483.91 960.5,2542.5C 960.16,2459.29 959.16,2376.29 957.5,2293.5 Z"/></g>
<g><path style="opacity:1" fill="#c0c7e6" d="M 958.5,932.5 C 958.5,932.833 958.5,933.167 958.5,933.5C 758.167,933.5 557.833,933.5 357.5,933.5C 357.5,934.5 357.5,935.5 357.5,936.5C 356.566,935.432 356.232,934.099 356.5,932.5C 557.167,932.5 757.833,932.5 958.5,932.5 Z"/></g>
<g><path style="opacity:1" fill="#e6e6e6" d="M 958.5,933.5 C 958.5,1013.17 958.5,1092.83 958.5,1172.5C 765.167,1172.5 571.833,1172.5 378.5,1172.5C 371.139,1093.87 364.139,1015.2 357.5,936.5C 357.5,935.5 357.5,934.5 357.5,933.5C 557.833,933.5 758.167,933.5 958.5,933.5 Z"/></g>
<g><path style="opacity:1" fill="#f9f9f9" d="M 958.5,932.5 C 958.833,932.5 959.167,932.5 959.5,932.5C 1159.83,932.5 1360.17,932.5 1560.5,932.5C 1523.95,1340.8 1487.61,1749.13 1451.5,2157.5C 1287.11,2202.68 1122.78,2248.01 958.5,2293.5C 958.5,2210.17 958.5,2126.83 958.5,2043.5C 958.833,2043.5 959.167,2043.5 959.5,2043.5C 1048.37,2019.1 1137.37,1995.1 1226.5,1971.5C 1235.94,1867.51 1245.28,1763.51 1254.5,1659.5C 1155.83,1659.5 1057.17,1659.5 958.5,1659.5C 958.5,1579.5 958.5,1499.5 958.5,1419.5C 1064.17,1419.5 1169.83,1419.5 1275.5,1419.5C 1282.45,1339.17 1289.45,1258.83 1296.5,1178.5C 1297.46,1176.74 1297.79,1174.74 1297.5,1172.5C 1184.5,1172.5 1071.5,1172.5 958.5,1172.5C 958.5,1092.83 958.5,1013.17 958.5,933.5C 958.5,933.167 958.5,932.833 958.5,932.5 Z"/></g>
<g><path style="opacity:1" fill="#a0b3ee" d="M 378.5,1172.5 C 571.833,1172.5 765.167,1172.5 958.5,1172.5C 1071.5,1172.5 1184.5,1172.5 1297.5,1172.5C 1297.79,1174.74 1297.46,1176.74 1296.5,1178.5C 1296.5,1176.83 1296.5,1175.17 1296.5,1173.5C 1184.17,1173.5 1071.83,1173.5 959.5,1173.5C 765.666,1173.83 571.999,1173.5 378.5,1172.5 Z"/></g>
<g><path style="opacity:1" fill="#2664ec" d="M 959.5,1173.5 C 1071.83,1173.5 1184.17,1173.5 1296.5,1173.5C 1296.5,1175.17 1296.5,1176.83 1296.5,1178.5C 1289.45,1258.83 1282.45,1339.17 1275.5,1419.5C 1169.83,1419.5 1064.17,1419.5 958.5,1419.5C 772.5,1419.5 586.5,1419.5 400.5,1419.5C 586.666,1418.5 772.999,1418.17 959.5,1418.5C 959.5,1336.83 959.5,1255.17 959.5,1173.5 Z"/></g>
<g><path style="opacity:1" fill="#e6e6e7" d="M 400.5,1419.5 C 586.5,1419.5 772.5,1419.5 958.5,1419.5C 958.5,1499.5 958.5,1579.5 958.5,1659.5C 779.833,1659.5 601.167,1659.5 422.5,1659.5C 414.209,1579.74 406.875,1499.74 400.5,1419.5 Z"/></g>
<g><path style="opacity:1" fill="#2563ec" d="M 422.5,1659.5 C 601.167,1659.5 779.833,1659.5 958.5,1659.5C 1057.17,1659.5 1155.83,1659.5 1254.5,1659.5C 1245.28,1763.51 1235.94,1867.51 1226.5,1971.5C 1137.37,1995.1 1048.37,2019.1 959.5,2043.5C 959.5,1915.83 959.5,1788.17 959.5,1660.5C 780.333,1660.83 601.333,1660.5 422.5,1659.5 Z"/></g>
<g><path style="opacity:1" fill="#e6e6e7" d="M 958.5,2043.5 C 958.5,2126.83 958.5,2210.17 958.5,2293.5C 958.167,2293.5 957.833,2293.5 957.5,2293.5C 793.5,2248.17 629.5,2202.83 465.5,2157.5C 454.806,2031.48 443.806,1905.48 432.5,1779.5C 512.834,1779.33 593.167,1779.5 673.5,1780C 679.695,1843.74 685.361,1907.57 690.5,1971.5C 779.739,1995.81 869.072,2019.81 958.5,2043.5 Z"/></g>
</svg>
