<?xml version="1.0" encoding="UTF-8"?>
<!DOCTYPE svg PUBLIC "-//W3C//DTD SVG 1.1//EN" "http://www.w3.org/Graphics/SVG/1.1/DTD/svg11.dtd">
<svg xmlns="http://www.w3.org/2000/svg" version="1.1" width="1024px" height="1024px" style="shape-rendering:geometricPrecision; text-rendering:geometricPrecision; image-rendering:optimizeQuality; fill-rule:evenodd; clip-rule:evenodd" xmlns:xlink="http://www.w3.org/1999/xlink">
<g><path style="opacity:1" fill="#00cdb5" d="M 538.5,-0.5 C 545.5,-0.5 552.5,-0.5 559.5,-0.5C 575.959,3.89723 590.626,11.7306 603.5,23C 643.694,63.5278 684.194,103.695 725,143.5C 733.571,168.3 742.405,192.966 751.5,217.5C 750.167,217.5 748.833,217.5 747.5,217.5C 731.7,214.159 715.7,212.493 699.5,212.5C 538.334,211.5 377.001,211.167 215.5,211.5C 319.595,142.589 423.595,73.4221 527.5,4C 531.157,2.17763 534.824,0.677626 538.5,-0.5 Z"/></g>
<g><path style="opacity:1" fill="#00b8bb" d="M 215.5,211.5 C 377.001,211.167 538.334,211.5 699.5,212.5C 538.332,212.167 377.332,212.5 216.5,213.5C 216.167,213.5 215.833,213.5 215.5,213.5C 215.5,212.833 215.5,212.167 215.5,211.5 Z"/></g>
<g><path style="opacity:1" fill="#007dc0" d="M 215.5,211.5 C 215.5,212.167 215.5,212.833 215.5,213.5C 215.333,375.167 215.5,536.834 216,698.5C 215.876,714.417 217.71,730.084 221.5,745.5C 221.5,746.167 221.5,746.833 221.5,747.5C 196.756,739.307 172.09,730.807 147.5,722C 107.028,680.528 66.1945,639.361 25,598.5C 11.3216,583.305 3.82156,565.471 2.5,545C 2.31309,538.58 3.47975,532.414 6,526.5C 75.8568,421.435 145.69,316.435 215.5,211.5 Z"/></g>
<g><path style="opacity:1" fill="#007dc8" d="M 216.5,213.5 C 377.332,212.5 538.332,212.167 699.5,212.5C 715.7,212.493 731.7,214.159 747.5,217.5C 748.531,218.249 749.698,218.915 751,219.5C 812.803,393.744 874.303,568.077 935.5,742.5C 916.533,786.429 897.2,830.095 877.5,873.5C 877.167,873.5 876.833,873.5 876.5,873.5C 656.833,653.167 436.833,433.167 216.5,213.5 Z"/></g>
<g><path style="opacity:1" fill="#00cdb5" d="M 215.5,213.5 C 215.833,213.5 216.167,213.5 216.5,213.5C 436.833,433.167 656.833,653.167 876.5,873.5C 874.572,875.474 872.239,876.974 869.5,878C 828.458,896.07 787.458,914.236 746.5,932.5C 572.007,870.559 397.34,809.225 222.5,748.5C 222.737,747.209 222.404,746.209 221.5,745.5C 217.71,730.084 215.876,714.417 216,698.5C 215.5,536.834 215.333,375.167 215.5,213.5 Z"/></g>
<g><path style="opacity:1" fill="#00a1e0" d="M 747.5,217.5 C 748.833,217.5 750.167,217.5 751.5,217.5C 787.646,227.406 820.312,243.906 849.5,267C 906.694,323.861 963.528,381.027 1020,438.5C 1020.83,568.835 1020.67,699.168 1019.5,829.5C 972.549,844.706 925.549,859.706 878.5,874.5C 877.833,874.5 877.5,874.167 877.5,873.5C 897.2,830.095 916.533,786.429 935.5,742.5C 874.303,568.077 812.803,393.744 751,219.5C 749.698,218.915 748.531,218.249 747.5,217.5 Z"/></g>
<g><path style="opacity:1" fill="#50d9c7" d="M 221.5,745.5 C 222.404,746.209 222.737,747.209 222.5,748.5C 397.34,809.225 572.007,870.559 746.5,932.5C 787.458,914.236 828.458,896.07 869.5,878C 872.239,876.974 874.572,875.474 876.5,873.5C 876.833,873.5 877.167,873.5 877.5,873.5C 877.5,874.167 877.833,874.5 878.5,874.5C 862.348,924.103 846.348,973.769 830.5,1023.5C 703.167,1023.5 575.833,1023.5 448.5,1023.5C 388.895,964.395 329.395,905.062 270,845.5C 247.213,816.258 231.046,783.591 221.5,747.5C 221.5,746.833 221.5,746.167 221.5,745.5 Z"/></g>
</svg>
