<?xml version="1.0" encoding="UTF-8"?>
<!DOCTYPE svg PUBLIC "-//W3C//DTD SVG 1.1//EN" "http://www.w3.org/Graphics/SVG/1.1/DTD/svg11.dtd">
<svg xmlns="http://www.w3.org/2000/svg" version="1.1" width="1920px" height="2880px" style="shape-rendering:geometricPrecision; text-rendering:geometricPrecision; image-rendering:optimizeQuality; fill-rule:evenodd; clip-rule:evenodd" xmlns:xlink="http://www.w3.org/1999/xlink">
<g><path style="opacity:1" fill="#ed4b19" d="M 448.5,-0.5 C 618.833,-0.5 789.167,-0.5 959.5,-0.5C 959.5,319.5 959.5,639.5 959.5,959.5C 790.5,959.5 621.5,959.5 452.5,959.5C 298.894,946.969 176.728,878.969 86,755.5C 34.3946,680.853 5.56123,598.187 -0.5,507.5C -0.5,488.833 -0.5,470.167 -0.5,451.5C 11.4991,302.971 76.1658,183.471 193.5,93C 269.462,37.6192 354.462,6.45254 448.5,-0.5 Z"/></g>
<g><path style="opacity:1" fill="#f96f5d" d="M 959.5,-0.5 C 1129.83,-0.5 1300.17,-0.5 1470.5,-0.5C 1632.59,14.2572 1758.09,89.2572 1847,224.5C 1889.96,294.205 1914.12,369.872 1919.5,451.5C 1919.5,470.167 1919.5,488.833 1919.5,507.5C 1905.69,669.368 1831.69,795.201 1697.5,885C 1626.79,929.403 1549.79,954.237 1466.5,959.5C 1446.17,959.5 1425.83,959.5 1405.5,959.5C 1256.83,959.5 1108.17,959.5 959.5,959.5C 959.5,639.5 959.5,319.5 959.5,-0.5 Z"/></g>
<g><path style="opacity:1" fill="#9b57f9" d="M 452.5,959.5 C 621.5,959.5 790.5,959.5 959.5,959.5C 959.5,1109.17 959.5,1258.83 959.5,1408.5C 959.5,1429.17 959.5,1449.83 959.5,1470.5C 959.5,1620.17 959.5,1769.83 959.5,1919.5C 791.5,1919.5 623.5,1919.5 455.5,1919.5C 302.658,1908.01 180.491,1841.35 89,1719.5C 35.8467,1643.88 6.01334,1559.88 -0.5,1467.5C -0.5,1448.83 -0.5,1430.17 -0.5,1411.5C 10.771,1268.87 71.4377,1152.37 181.5,1062C 260.958,1000 351.291,965.834 452.5,959.5 Z"/></g>
<g><path style="opacity:1" fill="#19bafa" d="M 1405.5,959.5 C 1425.83,959.5 1446.17,959.5 1466.5,959.5C 1617.52,971.406 1738.35,1037.41 1829,1157.5C 1883.06,1233.52 1913.23,1318.18 1919.5,1411.5C 1919.5,1429.83 1919.5,1448.17 1919.5,1466.5C 1908.31,1610.4 1846.98,1727.57 1735.5,1818C 1621.89,1903.57 1494.56,1934.9 1353.5,1912C 1208.93,1882.67 1098.76,1805.17 1023,1679.5C 986.169,1614.49 965.002,1544.82 959.5,1470.5C 959.5,1449.83 959.5,1429.17 959.5,1408.5C 972.448,1260.74 1037.45,1141.91 1154.5,1052C 1229.35,997.589 1313.02,966.755 1405.5,959.5 Z"/></g>
<g><path style="opacity:1" fill="#06cd7d" d="M 455.5,1919.5 C 623.5,1919.5 791.5,1919.5 959.5,1919.5C 959.667,2089.5 959.5,2259.5 959,2429.5C 946.087,2581.55 878.587,2702.39 756.5,2792C 678.952,2845.79 592.952,2874.96 498.5,2879.5C 485.833,2879.5 473.167,2879.5 460.5,2879.5C 290.307,2867.69 159.474,2790.36 68,2647.5C 27.5234,2579.24 4.69005,2505.57 -0.5,2426.5C -0.5,2408.17 -0.5,2389.83 -0.5,2371.5C 10.5703,2228.18 71.5703,2111.35 182.5,2021C 262.754,1959.07 353.754,1925.24 455.5,1919.5 Z"/></g>
</svg>
