<?xml version="1.0" encoding="UTF-8"?>
<!DOCTYPE svg PUBLIC "-//W3C//DTD SVG 1.1//EN" "http://www.w3.org/Graphics/SVG/1.1/DTD/svg11.dtd">
<svg xmlns="http://www.w3.org/2000/svg" version="1.1" width="320px" height="320px" style="shape-rendering:geometricPrecision; text-rendering:geometricPrecision; image-rendering:optimizeQuality; fill-rule:evenodd; clip-rule:evenodd" xmlns:xlink="http://www.w3.org/1999/xlink">
<g><path style="opacity:1" fill="#5cc7f3" d="M 188.5,-0.5 C 221.833,-0.5 255.167,-0.5 288.5,-0.5C 219.57,70.097 149.903,140.097 79.5,209.5C 63.1806,193.681 47.0139,177.681 31,161.5C 30.3333,160.167 30.3333,158.833 31,157.5C 83.7014,104.965 136.201,52.2987 188.5,-0.5 Z"/></g>
<g><path style="opacity:1" fill="#56c0f2" d="M 189.5,146.5 C 222.329,145.502 255.329,145.168 288.5,145.5C 288.649,146.552 288.483,147.552 288,148.5C 259.965,176.368 232.132,204.368 204.5,232.5C 203.833,232.5 203.167,232.5 202.5,232.5C 193.736,223.349 184.736,214.349 175.5,205.5C 186.28,198.909 196.113,190.909 205,181.5C 214.214,170.621 223.047,159.454 231.5,148C 217.491,147.625 203.491,147.125 189.5,146.5 Z"/></g>
<g><path style="opacity:1" fill="#56c7f3" d="M 189.5,146.5 C 203.491,147.125 217.491,147.625 231.5,148C 223.047,159.454 214.214,170.621 205,181.5C 196.113,190.909 186.28,198.909 175.5,205.5C 167.992,198.826 160.992,191.659 154.5,184C 166.381,171.622 178.048,159.122 189.5,146.5 Z"/></g>
<g><path style="opacity:1" fill="#2db5f2" d="M 189.5,146.5 C 178.048,159.122 166.381,171.622 154.5,184C 160.992,191.659 167.992,198.826 175.5,205.5C 184.736,214.349 193.736,223.349 202.5,232.5C 195.833,239.5 189.167,246.5 182.5,253.5C 173.5,261.833 164.833,270.5 156.5,279.5C 154.833,280.5 153.5,281.833 152.5,283.5C 136.062,266.562 119.396,249.728 102.5,233C 131.368,203.965 160.368,175.132 189.5,146.5 Z"/></g>
<g><path style="opacity:1" fill="#095096" d="M 156.5,279.5 C 164.833,270.5 173.5,261.833 182.5,253.5C 183.847,252.972 185.181,252.805 186.5,253C 190.333,256.833 194.167,260.667 198,264.5C 199.297,263.216 200.464,263.383 201.5,265C 189.378,269.186 177.378,273.686 165.5,278.5C 163.93,278.306 162.43,278.306 161,278.5C 159.846,279.743 158.512,280.743 157,281.5C 156.536,280.906 156.369,280.239 156.5,279.5 Z"/></g>
<g><path style="opacity:1" fill="#02579b" d="M 202.5,232.5 C 203.167,232.5 203.833,232.5 204.5,232.5C 204.987,233.473 205.487,234.473 206,235.5C 221.619,250.102 236.786,265.102 251.5,280.5C 251.586,281.496 251.252,282.329 250.5,283C 233.918,296.238 216.251,307.905 197.5,318C 227.072,318.828 256.572,318.662 286,317.5C 286.717,318.044 287.217,318.711 287.5,319.5C 254.5,319.5 221.5,319.5 188.5,319.5C 176.833,307.167 164.833,295.167 152.5,283.5C 153.5,281.833 154.833,280.5 156.5,279.5C 156.369,280.239 156.536,280.906 157,281.5C 158.512,280.743 159.846,279.743 161,278.5C 162.43,278.306 163.93,278.306 165.5,278.5C 177.378,273.686 189.378,269.186 201.5,265C 200.464,263.383 199.297,263.216 198,264.5C 194.167,260.667 190.333,256.833 186.5,253C 185.181,252.805 183.847,252.972 182.5,253.5C 189.167,246.5 195.833,239.5 202.5,232.5 Z"/></g>
<g><path style="opacity:1" fill="#005796" d="M 251.5,280.5 C 261.801,291.634 272.634,302.3 284,312.5C 285.75,314.734 287.25,317.068 288.5,319.5C 288.167,319.5 287.833,319.5 287.5,319.5C 287.217,318.711 286.717,318.044 286,317.5C 256.572,318.662 227.072,318.828 197.5,318C 216.251,307.905 233.918,296.238 250.5,283C 251.252,282.329 251.586,281.496 251.5,280.5 Z"/></g>
</svg>
