<?xml version="1.0" encoding="UTF-8"?>
<!DOCTYPE svg PUBLIC "-//W3C//DTD SVG 1.1//EN" "http://www.w3.org/Graphics/SVG/1.1/DTD/svg11.dtd">
<svg xmlns="http://www.w3.org/2000/svg" version="1.1" width="3840px" height="3840px" style="shape-rendering:geometricPrecision; text-rendering:geometricPrecision; image-rendering:optimizeQuality; fill-rule:evenodd; clip-rule:evenodd" xmlns:xlink="http://www.w3.org/1999/xlink">
<g><path style="opacity:1" fill="#ed4b31" d="M 1016.5,902.5 C 1044.75,875.752 1072.58,848.419 1100,820.5C 1100.46,819.906 1100.63,819.239 1100.5,818.5C 1152.63,765.868 1204.97,713.368 1257.5,661C 1258.17,660.333 1258.83,660.333 1259.5,661C 1396.47,798.973 1533.81,936.639 1671.5,1074C 1638.73,1156.37 1642.9,1236.87 1684,1315.5C 1715.83,1372.16 1761.66,1413.16 1821.5,1438.5C 1822.67,1771.83 1822.83,2105.17 1822,2438.5C 1742.55,2472.95 1689.22,2531.28 1662,2613.5C 1635.25,2710.07 1652.91,2797.41 1715,2875.5C 1781.28,2949.53 1864.11,2981.7 1963.5,2972C 2055.16,2957.8 2124.33,2910.96 2171,2831.5C 2218.33,2741.17 2218.33,2650.83 2171,2560.5C 2142.08,2510.91 2102.08,2472.91 2051,2446.5C 2050.17,2116.5 2050.33,1786.5 2051.5,1456.5C 2176.82,1581.32 2301.99,1706.32 2427,1831.5C 2424.44,1841.18 2421.44,1850.85 2418,1860.5C 2392.69,1957.99 2412.03,2045.32 2476,2122.5C 2543.53,2195.13 2626.7,2225.63 2725.5,2214C 2828.26,2195.55 2900.76,2138.71 2943,2043.5C 2977.92,1949.41 2967.58,1860.75 2912,1777.5C 2851.97,1697.9 2771.8,1659.07 2671.5,1661C 2646.2,1662.33 2621.53,1666.99 2597.5,1675C 2595.83,1675.67 2594.17,1675.67 2592.5,1675C 2458.67,1541.17 2324.83,1407.33 2191,1273.5C 2217.71,1188.92 2208.37,1108.59 2163,1032.5C 2102.54,943.182 2018.04,900.349 1909.5,904C 1886.61,905.511 1864.28,909.844 1842.5,917C 1840.83,917.667 1839.17,917.667 1837.5,917C 1698.17,777.667 1558.83,638.333 1419.5,499C 1532.17,386.333 1644.83,273.667 1757.5,161C 1819.98,107.463 1891.65,89.4634 1972.5,107C 2008.95,116.057 2041.29,132.724 2069.5,157C 2604.31,690.806 3138.81,1224.97 3673,1759.5C 3732.3,1825.13 3751.3,1901.13 3730,1987.5C 3719.4,2022.72 3702.06,2054.05 3678,2081.5C 3145.83,2613.67 2613.67,3145.83 2081.5,3678C 2015.32,3734.37 1939.98,3751.37 1855.5,3729C 1819.34,3718.1 1787.68,3699.77 1760.5,3674C 1228.33,3141.83 696.167,2609.67 164,2077.5C 103.924,2009.15 86.4243,1930.98 111.5,1843C 120.89,1814.37 135.057,1788.54 154,1765.5C 441.007,1477.33 728.507,1189.66 1016.5,902.5 Z"/></g>
<g><path style="opacity:1" fill="#ed5031" d="M 1100.5,818.5 C 1100.63,819.239 1100.46,819.906 1100,820.5C 1072.58,848.419 1044.75,875.752 1016.5,902.5C 1044.17,874.167 1072.17,846.167 1100.5,818.5 Z"/></g>
</svg>
