<?xml version="1.0" encoding="UTF-8"?>
<!DOCTYPE svg PUBLIC "-//W3C//DTD SVG 1.1//EN" "http://www.w3.org/Graphics/SVG/1.1/DTD/svg11.dtd">
<svg xmlns="http://www.w3.org/2000/svg" version="1.1" width="225px" height="225px" style="shape-rendering:geometricPrecision; text-rendering:geometricPrecision; image-rendering:optimizeQuality; fill-rule:evenodd; clip-rule:evenodd" xmlns:xlink="http://www.w3.org/1999/xlink">
<g><path style="opacity:1" fill="#f9f8f8" d="M -0.5,-0.5 C 15.5,-0.5 31.5,-0.5 47.5,-0.5C 47.5,9.5 47.5,19.5 47.5,29.5C 50.8333,29.5 54.1667,29.5 57.5,29.5C 57.5,26.1667 57.5,22.8333 57.5,19.5C 60.5,19.5 63.5,19.5 66.5,19.5C 66.5,22.8333 66.5,26.1667 66.5,29.5C 69.8333,29.5 73.1667,29.5 76.5,29.5C 76.5,19.5 76.5,9.5 76.5,-0.5C 78.1667,-0.5 79.8333,-0.5 81.5,-0.5C 81.5,2.83333 81.5,6.16667 81.5,9.5C 84.5,9.5 87.5,9.5 90.5,9.5C 90.5,16.1667 90.5,22.8333 90.5,29.5C 93.5,29.5 96.5,29.5 99.5,29.5C 99.5,22.8333 99.5,16.1667 99.5,9.5C 102.5,9.5 105.5,9.5 108.5,9.5C 108.5,6.16667 108.5,2.83333 108.5,-0.5C 110.167,-0.5 111.833,-0.5 113.5,-0.5C 113.5,9.5 113.5,19.5 113.5,29.5C 116.833,29.5 120.167,29.5 123.5,29.5C 123.334,24.8215 123.501,20.1548 124,15.5C 125.689,18.8915 127.856,21.8915 130.5,24.5C 133.144,21.8915 135.311,18.8915 137,15.5C 137.499,20.1548 137.666,24.8215 137.5,29.5C 140.833,29.5 144.167,29.5 147.5,29.5C 147.5,19.5 147.5,9.5 147.5,-0.5C 149.167,-0.5 150.833,-0.5 152.5,-0.5C 152.5,9.5 152.5,19.5 152.5,29.5C 160.5,29.5 168.5,29.5 176.5,29.5C 177.479,26.3752 177.813,23.0419 177.5,19.5C 172.5,19.5 167.5,19.5 162.5,19.5C 162.5,12.8333 162.5,6.16667 162.5,-0.5C 183.167,-0.5 203.833,-0.5 224.5,-0.5C 224.5,74.5 224.5,149.5 224.5,224.5C 187.167,224.5 149.833,224.5 112.5,224.5C 133.936,218.055 155.603,212.055 177.5,206.5C 181.686,152.12 186.353,97.7867 191.5,43.5C 138.5,43.5 85.5,43.5 32.5,43.5C 37.3194,97.8466 42.3194,152.18 47.5,206.5C 68.6009,212.539 89.6009,218.539 110.5,224.5C 73.5,224.5 36.5,224.5 -0.5,224.5C -0.5,149.5 -0.5,74.5 -0.5,-0.5 Z"/></g>
<g><path style="opacity:1" fill="#020202" d="M 47.5,-0.5 C 50.8333,-0.5 54.1667,-0.5 57.5,-0.5C 57.5,2.83333 57.5,6.16667 57.5,9.5C 60.5,9.5 63.5,9.5 66.5,9.5C 66.5,6.16667 66.5,2.83333 66.5,-0.5C 69.8333,-0.5 73.1667,-0.5 76.5,-0.5C 76.5,9.5 76.5,19.5 76.5,29.5C 73.1667,29.5 69.8333,29.5 66.5,29.5C 66.5,26.1667 66.5,22.8333 66.5,19.5C 63.5,19.5 60.5,19.5 57.5,19.5C 57.5,22.8333 57.5,26.1667 57.5,29.5C 54.1667,29.5 50.8333,29.5 47.5,29.5C 47.5,19.5 47.5,9.5 47.5,-0.5 Z"/></g>
<g><path style="opacity:1" fill="#f9faf9" d="M 57.5,-0.5 C 60.5,-0.5 63.5,-0.5 66.5,-0.5C 66.5,2.83333 66.5,6.16667 66.5,9.5C 63.5,9.5 60.5,9.5 57.5,9.5C 57.5,6.16667 57.5,2.83333 57.5,-0.5 Z"/></g>
<g><path style="opacity:1" fill="#000000" d="M 81.5,-0.5 C 90.5,-0.5 99.5,-0.5 108.5,-0.5C 108.5,2.83333 108.5,6.16667 108.5,9.5C 105.5,9.5 102.5,9.5 99.5,9.5C 99.5,16.1667 99.5,22.8333 99.5,29.5C 96.5,29.5 93.5,29.5 90.5,29.5C 90.5,22.8333 90.5,16.1667 90.5,9.5C 87.5,9.5 84.5,9.5 81.5,9.5C 81.5,6.16667 81.5,2.83333 81.5,-0.5 Z"/></g>
<g><path style="opacity:1" fill="#020202" d="M 113.5,-0.5 C 117.167,-0.5 120.833,-0.5 124.5,-0.5C 125.974,3.10917 127.974,6.44251 130.5,9.5C 132.831,6.17504 135.164,2.84171 137.5,-0.5C 140.833,-0.5 144.167,-0.5 147.5,-0.5C 147.5,9.5 147.5,19.5 147.5,29.5C 144.167,29.5 140.833,29.5 137.5,29.5C 137.666,24.8215 137.499,20.1548 137,15.5C 135.311,18.8915 133.144,21.8915 130.5,24.5C 127.856,21.8915 125.689,18.8915 124,15.5C 123.501,20.1548 123.334,24.8215 123.5,29.5C 120.167,29.5 116.833,29.5 113.5,29.5C 113.5,19.5 113.5,9.5 113.5,-0.5 Z"/></g>
<g><path style="opacity:1" fill="#eeeeee" d="M 124.5,-0.5 C 128.833,-0.5 133.167,-0.5 137.5,-0.5C 135.164,2.84171 132.831,6.17504 130.5,9.5C 127.974,6.44251 125.974,3.10917 124.5,-0.5 Z"/></g>
<g><path style="opacity:1" fill="#080808" d="M 152.5,-0.5 C 155.833,-0.5 159.167,-0.5 162.5,-0.5C 162.5,6.16667 162.5,12.8333 162.5,19.5C 166.97,20.4861 171.637,20.8195 176.5,20.5C 176.5,23.5 176.5,26.5 176.5,29.5C 168.5,29.5 160.5,29.5 152.5,29.5C 152.5,19.5 152.5,9.5 152.5,-0.5 Z"/></g>
<g><path style="opacity:1" fill="#656565" d="M 162.5,19.5 C 167.5,19.5 172.5,19.5 177.5,19.5C 177.813,23.0419 177.479,26.3752 176.5,29.5C 176.5,26.5 176.5,23.5 176.5,20.5C 171.637,20.8195 166.97,20.4861 162.5,19.5 Z"/></g>
<g><path style="opacity:1" fill="#e14b24" d="M 112.5,224.5 C 111.833,224.5 111.167,224.5 110.5,224.5C 89.6009,218.539 68.6009,212.539 47.5,206.5C 42.3194,152.18 37.3194,97.8466 32.5,43.5C 85.5,43.5 138.5,43.5 191.5,43.5C 186.353,97.7867 181.686,152.12 177.5,206.5C 155.603,212.055 133.936,218.055 112.5,224.5 Z"/></g>
<g><path style="opacity:1" fill="#ec6325" d="M 110.5,189.5 C 110.833,189.5 111.167,189.5 111.5,189.5C 125.313,186.452 138.98,182.786 152.5,178.5C 154.763,158.306 156.763,138.139 158.5,118C 142.837,117.5 127.17,117.333 111.5,117.5C 102.651,117.826 93.9839,117.493 85.5,116.5C 94.1667,116.5 102.833,116.5 111.5,116.5C 111.209,110.077 111.542,103.744 112.5,97.5C 128.675,97.8297 144.675,97.4964 160.5,96.5C 160.907,90.8387 161.24,85.172 161.5,79.5C 162.404,78.791 162.737,77.791 162.5,76.5C 145.833,76.5 129.167,76.5 112.5,76.5C 112.5,70.1667 112.5,63.8333 112.5,57.5C 133.833,57.5 155.167,57.5 176.5,57.5C 173.217,103.896 169.217,150.23 164.5,196.5C 147.424,200.745 130.424,205.412 113.5,210.5C 113.082,203.253 112.082,196.253 110.5,189.5 Z"/></g>
<g><path style="opacity:1" fill="#efac9b" d="M 112.5,76.5 C 129.167,76.5 145.833,76.5 162.5,76.5C 162.737,77.791 162.404,78.791 161.5,79.5C 145.2,77.5146 128.534,76.8479 111.5,77.5C 95.1667,77.5 78.8333,77.5 62.5,77.5C 62.5,78.5 62.5,79.5 62.5,80.5C 61.5655,79.4324 61.2322,78.099 61.5,76.5C 78.5,76.5 95.5,76.5 112.5,76.5 Z"/></g>
<g><path style="opacity:1" fill="#f9f9f9" d="M 111.5,77.5 C 128.534,76.8479 145.2,77.5146 161.5,79.5C 161.24,85.172 160.907,90.8387 160.5,96.5C 144.167,96.5 127.833,96.5 111.5,96.5C 111.5,90.1667 111.5,83.8333 111.5,77.5 Z"/></g>
<g><path style="opacity:1" fill="#e7e5e5" d="M 111.5,77.5 C 111.5,83.8333 111.5,90.1667 111.5,96.5C 102.167,96.5 92.8333,96.5 83.5,96.5C 83.2322,98.099 83.5655,99.4324 84.5,100.5C 84.9801,105.822 85.3135,111.155 85.5,116.5C 93.9839,117.493 102.651,117.826 111.5,117.5C 111.5,124.167 111.5,130.833 111.5,137.5C 96.8182,137.833 82.1515,137.499 67.5,136.5C 65.3068,117.899 63.6401,99.2324 62.5,80.5C 62.5,79.5 62.5,78.5 62.5,77.5C 78.8333,77.5 95.1667,77.5 111.5,77.5 Z"/></g>
<g><path style="opacity:1" fill="#eea792" d="M 111.5,96.5 C 127.833,96.5 144.167,96.5 160.5,96.5C 144.675,97.4964 128.675,97.8297 112.5,97.5C 103.167,97.5 93.8333,97.5 84.5,97.5C 84.5,98.5 84.5,99.5 84.5,100.5C 83.5655,99.4324 83.2322,98.099 83.5,96.5C 92.8333,96.5 102.167,96.5 111.5,96.5 Z"/></g>
<g><path style="opacity:1" fill="#e14923" d="M 112.5,97.5 C 111.542,103.744 111.209,110.077 111.5,116.5C 102.833,116.5 94.1667,116.5 85.5,116.5C 85.3135,111.155 84.9801,105.822 84.5,100.5C 84.5,99.5 84.5,98.5 84.5,97.5C 93.8333,97.5 103.167,97.5 112.5,97.5 Z"/></g>
<g><path style="opacity:1" fill="#f9f8f7" d="M 111.5,117.5 C 127.17,117.333 142.837,117.5 158.5,118C 156.763,138.139 154.763,158.306 152.5,178.5C 138.98,182.786 125.313,186.452 111.5,189.5C 111.5,182.833 111.5,176.167 111.5,169.5C 112.791,169.737 113.791,169.404 114.5,168.5C 121.048,166.43 127.715,164.763 134.5,163.5C 134.455,155.088 135.121,146.754 136.5,138.5C 128.35,137.507 120.017,137.174 111.5,137.5C 111.5,130.833 111.5,124.167 111.5,117.5 Z"/></g>
<g><path style="opacity:1" fill="#ed6324" d="M 136.5,138.5 C 135.121,146.754 134.455,155.088 134.5,163.5C 127.715,164.763 121.048,166.43 114.5,168.5C 112.564,158.76 111.898,148.76 112.5,138.5C 120.5,138.5 128.5,138.5 136.5,138.5 Z"/></g>
<g><path style="opacity:1" fill="#e7e4e4" d="M 114.5,168.5 C 113.791,169.404 112.791,169.737 111.5,169.5C 111.5,176.167 111.5,182.833 111.5,189.5C 111.167,189.5 110.833,189.5 110.5,189.5C 97.4754,186.16 84.4754,182.66 71.5,179C 70.0182,168.59 69.0182,158.09 68.5,147.5C 75.1667,147.5 81.8333,147.5 88.5,147.5C 89.1942,152.805 89.5276,158.138 89.5,163.5C 97.6959,165.786 106.029,167.452 114.5,168.5 Z"/></g>
</svg>
