<?xml version="1.0" encoding="UTF-8"?>
<!DOCTYPE svg PUBLIC "-//W3C//DTD SVG 1.1//EN" "http://www.w3.org/Graphics/SVG/1.1/DTD/svg11.dtd">
<svg xmlns="http://www.w3.org/2000/svg" version="1.1" width="1052px" height="1052px" style="shape-rendering:geometricPrecision; text-rendering:geometricPrecision; image-rendering:optimizeQuality; fill-rule:evenodd; clip-rule:evenodd" xmlns:xlink="http://www.w3.org/1999/xlink">
<g><path style="opacity:1" fill="#ecd94b" d="M -0.5,0.5 C 349.833,0.5 700.167,0.5 1050.5,0.5C 1050.5,350.833 1050.5,701.167 1050.5,1051.5C 700.167,1051.5 349.833,1051.5 -0.5,1051.5C -0.5,701.167 -0.5,350.833 -0.5,0.5 Z"/></g>
<g><path style="opacity:1" fill="#faf5e9" d="M -0.5,0.5 C -0.5,0.166667 -0.5,-0.166667 -0.5,-0.5C 350.167,-0.5 700.833,-0.5 1051.5,-0.5C 1051.5,350.167 1051.5,700.833 1051.5,1051.5C 1051.17,1051.5 1050.83,1051.5 1050.5,1051.5C 1050.5,701.167 1050.5,350.833 1050.5,0.5C 700.167,0.5 349.833,0.5 -0.5,0.5 Z"/></g>
<g><path style="opacity:1" fill="#32322b" d="M 785.5,476.5 C 809.987,475.595 833.987,478.428 857.5,485C 893.635,497.966 920.635,521.466 938.5,555.5C 913.507,572.332 888.173,588.665 862.5,604.5C 856.191,594.012 848.525,584.512 839.5,576C 827.379,567.015 813.712,562.515 798.5,562.5C 775.297,562.836 759.797,573.836 752,595.5C 748.61,617.882 756.443,635.048 775.5,647C 800.753,660.533 826.753,672.533 853.5,683C 877.654,693.565 899.987,706.898 920.5,723C 956.826,755.284 972.326,795.784 967,844.5C 962.136,891.421 938.97,925.921 897.5,948C 835.829,974.622 773.829,975.289 711.5,950C 672.919,932.585 643.919,905.085 624.5,867.5C 650.881,851.951 677.381,836.617 704,821.5C 709.308,827.825 714.308,834.492 719,841.5C 749.737,876.963 787.904,888.463 833.5,876C 864.497,864.505 874.997,843.005 865,811.5C 858.451,800.617 849.617,792.117 838.5,786C 805.167,770.667 771.833,755.333 738.5,740C 668.058,702.592 641.891,644.759 660,566.5C 672.378,530.787 695.878,505.287 730.5,490C 748.315,482.885 766.648,478.385 785.5,476.5 Z"/></g>
<g><path style="opacity:1" fill="#32322b" d="M 472.5,482.5 C 505.167,482.5 537.833,482.5 570.5,482.5C 570.667,601.167 570.5,719.834 570,838.5C 568.168,874.642 555.001,905.808 530.5,932C 508.438,951.191 482.772,962.525 453.5,966C 404.344,974.108 359.677,963.775 319.5,935C 301.001,919.505 286.668,900.838 276.5,879C 276.759,877.739 277.426,876.739 278.5,876C 304.167,860.5 329.833,845 355.5,829.5C 362.816,842.634 371.483,854.801 381.5,866C 395.947,878.446 412.614,882.779 431.5,879C 447.624,877.865 459.124,870.032 466,855.5C 469.253,847.823 471.253,839.823 472,831.5C 472.5,715.167 472.667,598.834 472.5,482.5 Z"/></g>
</svg>
