<?xml version="1.0" encoding="UTF-8"?>
<!DOCTYPE svg PUBLIC "-//W3C//DTD SVG 1.1//EN" "http://www.w3.org/Graphics/SVG/1.1/DTD/svg11.dtd">
<svg xmlns="http://www.w3.org/2000/svg" version="1.1" width="1200px" height="1200px" style="shape-rendering:geometricPrecision; text-rendering:geometricPrecision; image-rendering:optimizeQuality; fill-rule:evenodd; clip-rule:evenodd" xmlns:xlink="http://www.w3.org/1999/xlink">
<g><path style="opacity:1" fill="#f9f9f9" d="M -0.5,-0.5 C 399.5,-0.5 799.5,-0.5 1199.5,-0.5C 1199.5,184.167 1199.5,368.833 1199.5,553.5C 1198.4,550.155 1196.4,547.322 1193.5,545C 1151.01,521.92 1108.67,498.587 1066.5,475C 1063.5,474.333 1060.5,474.333 1057.5,475C 1016.8,497.348 976.135,519.681 935.5,542C 930.667,544.167 927.167,547.667 925,552.5C 924.333,600.5 924.333,648.5 925,696.5C 927.562,702.061 931.728,705.894 937.5,708C 977.468,729.986 1017.47,751.986 1057.5,774C 1063.78,775.338 1069.44,774.004 1074.5,770C 1091.83,760.333 1109.17,750.667 1126.5,741C 1130.01,737.264 1130.34,733.264 1127.5,729C 1085.08,706.235 1042.91,683.068 1001,659.5C 999.853,647.926 999.353,636.259 999.5,624.5C 999.353,612.741 999.853,601.074 1001,589.5C 1020.25,578.793 1039.41,567.96 1058.5,557C 1060.5,556.333 1062.5,556.333 1064.5,557C 1084.11,567.721 1103.61,578.554 1123,589.5C 1124.31,608.077 1124.97,626.743 1125,645.5C 1125.87,648.203 1127.7,649.536 1130.5,649.5C 1133.7,648.901 1136.7,647.734 1139.5,646C 1157,635.414 1174.67,625.081 1192.5,615C 1195.75,613.258 1198.08,610.758 1199.5,607.5C 1199.5,804.833 1199.5,1002.17 1199.5,1199.5C 799.5,1199.5 399.5,1199.5 -0.5,1199.5C -0.5,1048.17 -0.5,896.833 -0.5,745.5C 2.72711,750.303 6.72711,750.803 11.5,747C 30.5,736 49.5,725 68.5,714C 70.3783,712.457 71.8783,710.624 73,708.5C 74.3157,669.56 74.9823,630.56 75,591.5C 75.3742,590.584 75.8742,589.75 76.5,589C 96.0742,577.38 116.074,566.546 136.5,556.5C 156.223,565.862 175.556,576.029 194.5,587C 196.659,588.059 198.326,589.559 199.5,591.5C 199.5,628.833 199.5,666.167 199.5,703.5C 199.372,705.655 199.872,707.655 201,709.5C 203.22,712.021 205.72,714.188 208.5,716C 228.408,727.451 248.408,738.618 268.5,749.5C 270.187,749.24 271.687,748.573 273,747.5C 274.367,743.3 274.867,738.967 274.5,734.5C 274.5,676.5 274.5,618.5 274.5,560.5C 275.33,551.66 271.663,545.494 263.5,542C 223.52,520.033 183.52,498.033 143.5,476C 136.646,473.483 130.313,474.483 124.5,479C 84.9944,501.254 45.3277,523.254 5.5,545C 2.87922,547.114 0.879222,549.614 -0.5,552.5C -0.5,368.167 -0.5,183.833 -0.5,-0.5 Z"/></g>
<g><path style="opacity:1" fill="#32444b" d="M 624.5,686.5 C 625.833,665.677 626.5,644.511 626.5,623C 626.5,601.489 625.833,580.323 624.5,559.5C 623.865,553.508 625.865,548.675 630.5,545C 672.994,521.92 715.327,498.587 757.5,475C 761.236,474.39 764.903,474.723 768.5,476C 786.833,486.167 805.167,496.333 823.5,506.5C 824.333,438.836 824.833,371.169 825,303.5C 825.998,301.079 827.832,299.745 830.5,299.5C 852.45,310.808 874.117,322.642 895.5,335C 897.041,336.579 898.208,338.413 899,340.5C 899.667,458.833 899.667,577.167 899,695.5C 898.3,699.066 896.467,701.9 893.5,704C 853.672,725.746 814.006,747.746 774.5,770C 766.137,775.923 757.803,775.923 749.5,770C 710.661,748.08 671.661,726.413 632.5,705C 625.88,700.665 623.213,694.498 624.5,686.5 Z"/></g>
<g><path style="opacity:1" fill="#32444b" d="M 1199.5,553.5 C 1199.5,571.5 1199.5,589.5 1199.5,607.5C 1198.08,610.758 1195.75,613.258 1192.5,615C 1174.67,625.081 1157,635.414 1139.5,646C 1136.7,647.734 1133.7,648.901 1130.5,649.5C 1127.7,649.536 1125.87,648.203 1125,645.5C 1124.97,626.743 1124.31,608.077 1123,589.5C 1103.61,578.554 1084.11,567.721 1064.5,557C 1062.5,556.333 1060.5,556.333 1058.5,557C 1039.41,567.96 1020.25,578.793 1001,589.5C 999.853,601.074 999.353,612.741 999.5,624.5C 999.353,636.259 999.853,647.926 1001,659.5C 1042.91,683.068 1085.08,706.235 1127.5,729C 1130.34,733.264 1130.01,737.264 1126.5,741C 1109.17,750.667 1091.83,760.333 1074.5,770C 1069.44,774.004 1063.78,775.338 1057.5,774C 1017.47,751.986 977.468,729.986 937.5,708C 931.728,705.894 927.562,702.061 925,696.5C 924.333,648.5 924.333,600.5 925,552.5C 927.167,547.667 930.667,544.167 935.5,542C 976.135,519.681 1016.8,497.348 1057.5,475C 1060.5,474.333 1063.5,474.333 1066.5,475C 1108.67,498.587 1151.01,521.92 1193.5,545C 1196.4,547.322 1198.4,550.155 1199.5,553.5 Z"/></g>
<g><path style="opacity:1" fill="#32444b" d="M 274.5,560.5 C 273.883,560.389 273.383,560.056 273,559.5C 272.333,618.5 272.333,677.5 273,736.5C 273.278,735.584 273.778,734.918 274.5,734.5C 274.867,738.967 274.367,743.3 273,747.5C 271.687,748.573 270.187,749.24 268.5,749.5C 248.408,738.618 228.408,727.451 208.5,716C 205.72,714.188 203.22,712.021 201,709.5C 199.872,707.655 199.372,705.655 199.5,703.5C 200.117,703.389 200.617,703.056 201,702.5C 201.667,665.833 201.667,629.167 201,592.5C 200.617,591.944 200.117,591.611 199.5,591.5C 198.326,589.559 196.659,588.059 194.5,587C 175.556,576.029 156.223,565.862 136.5,556.5C 116.074,566.546 96.0742,577.38 76.5,589C 75.8742,589.75 75.3742,590.584 75,591.5C 74.9823,630.56 74.3157,669.56 73,708.5C 71.8783,710.624 70.3783,712.457 68.5,714C 49.5,725 30.5,736 11.5,747C 6.72711,750.803 2.72711,750.303 -0.5,745.5C -0.5,681.167 -0.5,616.833 -0.5,552.5C 0.879222,549.614 2.87922,547.114 5.5,545C 45.3277,523.254 84.9944,501.254 124.5,479C 130.313,474.483 136.646,473.483 143.5,476C 183.52,498.033 223.52,520.033 263.5,542C 271.663,545.494 275.33,551.66 274.5,560.5 Z"/></g>
<g><path style="opacity:1" fill="#4aae4b" d="M 446.5,480.5 C 446.833,480.5 447.167,480.5 447.5,480.5C 452.794,492.217 459.294,503.217 467,513.5C 476.19,530.682 486.19,547.348 497,563.5C 502.023,573.559 507.523,583.226 513.5,592.5C 513.52,594.143 512.853,595.476 511.5,596.5C 513.991,597.541 513.991,598.374 511.5,599C 513.863,599.589 514.863,601.089 514.5,603.5C 515.873,603.343 517.207,603.51 518.5,604C 518.043,604.414 517.709,604.914 517.5,605.5C 520.759,608.003 522.259,611.336 522,615.5C 522.333,615.167 522.667,614.833 523,614.5C 523.637,616.303 524.803,617.636 526.5,618.5C 527.306,621.446 528.639,624.112 530.5,626.5C 529.954,628.135 529.62,629.801 529.5,631.5C 531.467,631.261 533.301,631.594 535,632.5C 537.456,638.593 540.123,643.927 543,648.5C 543.908,650.439 545.408,651.439 547.5,651.5C 547.5,652.833 547.5,654.167 547.5,655.5C 548.5,655.5 549.5,655.5 550.5,655.5C 555.03,659.513 558.197,664.513 560,670.5C 564.614,676.075 568.447,682.075 571.5,688.5C 571.833,688.5 572.167,688.5 572.5,688.5C 572.577,692.215 572.244,695.881 571.5,699.5C 569.549,699.227 568.049,699.893 567,701.5C 566.667,701.167 566.333,700.833 566,700.5C 565.654,702.848 564.487,704.681 562.5,706C 558.804,708.487 554.804,710.487 550.5,712C 548.584,714.409 546.584,716.576 544.5,718.5C 543.833,718.5 543.5,718.833 543.5,719.5C 542.833,719.5 542.167,719.5 541.5,719.5C 536.645,721.418 531.645,723.085 526.5,724.5C 521.594,723.477 517.094,721.477 513,718.5C 512.308,719.025 511.808,719.692 511.5,720.5C 514.699,722.864 518.032,725.03 521.5,727C 518.867,729.809 515.867,729.975 512.5,727.5C 511.294,729.484 511.294,731.484 512.5,733.5C 508.601,735.386 504.934,737.719 501.5,740.5C 496.495,742.775 491.495,744.942 486.5,747C 487.171,747.986 487.171,749.153 486.5,750.5C 485.833,750.833 485.167,751.167 484.5,751.5C 481.316,752.643 477.983,753.309 474.5,753.5C 474.5,754.5 474.5,755.5 474.5,756.5C 471.086,758.156 467.92,757.823 465,755.5C 464.5,755.833 464,756.167 463.5,756.5C 464.348,758.409 464.682,760.409 464.5,762.5C 462.143,762.337 459.81,762.503 457.5,763C 450.603,771.075 441.937,774.408 431.5,773C 430.016,772.338 428.683,771.504 427.5,770.5C 398.75,722.78 370.083,675.113 341.5,627.5C 335.057,616.94 328.89,606.273 323,595.5C 318.225,588.352 313.725,581.018 309.5,573.5C 309.414,572.504 309.748,571.671 310.5,571C 309.891,568.942 308.891,568.109 307.5,568.5C 307.833,567.833 308.167,567.167 308.5,566.5C 307.167,565.5 305.833,564.5 304.5,563.5C 305.262,563.089 306.262,562.923 307.5,563C 304.998,561.663 302.998,559.829 301.5,557.5C 301.453,556 302.119,555 303.5,554.5C 307.527,557.064 311.193,556.564 314.5,553C 313.234,552.691 312.067,552.191 311,551.5C 309.103,553.016 306.936,553.683 304.5,553.5C 302.726,549.745 304.059,547.911 308.5,548C 311.036,545.295 313.703,542.795 316.5,540.5C 320.367,539.705 323.701,537.872 326.5,535C 330.057,533.592 333.724,532.592 337.5,532C 338.743,530.846 339.743,529.512 340.5,528C 347.758,524.554 355.091,521.388 362.5,518.5C 362.281,517.325 362.614,516.325 363.5,515.5C 366.5,514.333 369.5,513.167 372.5,512C 373.823,511.184 374.489,510.017 374.5,508.5C 380.832,506.974 386.165,503.974 390.5,499.5C 394.475,497.436 398.808,496.103 403.5,495.5C 406.654,492.757 409.988,490.257 413.5,488C 420.144,485.855 426.477,483.022 432.5,479.5C 433.833,479.167 435.167,478.833 436.5,478.5C 439.69,479.655 443.023,480.322 446.5,480.5 Z"/></g>
<g><path style="opacity:1" fill="#4b7f4b" d="M 432.5,476.5 C 435.304,475.362 438.304,475.195 441.5,476C 448.719,479.102 455.386,482.936 461.5,487.5C 456.295,486.231 451.628,483.898 447.5,480.5C 447.167,480.5 446.833,480.5 446.5,480.5C 442.535,477.074 437.869,475.74 432.5,476.5 Z"/></g>
<g><path style="opacity:1" fill="#e0f5e1" d="M 473.5,493.5 C 469.783,490.975 465.783,488.975 461.5,487.5C 455.386,482.936 448.719,479.102 441.5,476C 438.304,475.195 435.304,475.362 432.5,476.5C 426.814,479.202 421.147,481.869 415.5,484.5C 419.478,481.075 423.811,477.909 428.5,475C 432.761,473.637 437.095,473.304 441.5,474C 450.956,479.229 460.623,484.229 470.5,489C 471.551,490.385 472.884,491.385 474.5,492C 473.944,492.383 473.611,492.883 473.5,493.5 Z"/></g>
<g><path style="opacity:1" fill="#57a45b" d="M 432.5,476.5 C 437.869,475.74 442.535,477.074 446.5,480.5C 443.023,480.322 439.69,479.655 436.5,478.5C 435.167,478.833 433.833,479.167 432.5,479.5C 426.477,483.022 420.144,485.855 413.5,488C 409.988,490.257 406.654,492.757 403.5,495.5C 398.808,496.103 394.475,497.436 390.5,499.5C 396.467,495.846 402.467,492.18 408.5,488.5C 411.331,487.921 413.664,486.588 415.5,484.5C 421.147,481.869 426.814,479.202 432.5,476.5 Z"/></g>
<g><path style="opacity:1" fill="#e6f7e6" d="M 408.5,488.5 C 402.467,492.18 396.467,495.846 390.5,499.5C 387.352,500.576 384.352,501.909 381.5,503.5C 382.812,501.521 384.479,499.855 386.5,498.5C 390.333,496.612 394,494.445 397.5,492C 400.993,490.251 404.66,489.085 408.5,488.5 Z"/></g>
<g><path style="opacity:1" fill="#337635" d="M 461.5,487.5 C 465.783,488.975 469.783,490.975 473.5,493.5C 486.368,500.767 499.368,507.767 512.5,514.5C 513.694,515.272 514.694,516.272 515.5,517.5C 516.306,518.728 517.306,519.728 518.5,520.5C 515.901,520.451 513.734,519.451 512,517.5C 507.369,519.054 504.536,517.388 503.5,512.5C 502.448,512.649 501.448,512.483 500.5,512C 494.963,506.529 488.296,503.029 480.5,501.5C 482.376,505.864 485.709,508.697 490.5,510C 487.833,510.667 487.833,511.333 490.5,512C 488.527,512.495 486.527,512.662 484.5,512.5C 484.5,511.5 484.5,510.5 484.5,509.5C 478.384,508.718 475.384,511.385 475.5,517.5C 474.178,517.67 473.011,517.337 472,516.5C 471.505,514.527 471.338,512.527 471.5,510.5C 472.833,510.5 474.167,510.5 475.5,510.5C 475.663,508.143 475.497,505.81 475,503.5C 472.021,500.679 472.854,498.846 477.5,498C 475.303,496.257 472.97,494.757 470.5,493.5C 466.214,493.834 463.214,491.834 461.5,487.5 Z"/></g>
<g><path style="opacity:1" fill="#e5f7e6" d="M 381.5,503.5 C 378.991,504.921 376.657,506.588 374.5,508.5C 367.608,511.394 360.941,514.728 354.5,518.5C 354.511,516.983 355.177,515.816 356.5,515C 362.398,512.532 367.731,509.199 372.5,505C 375.478,504.304 378.478,503.804 381.5,503.5 Z"/></g>
<g><path style="opacity:1" fill="#61a463" d="M 390.5,499.5 C 386.165,503.974 380.832,506.974 374.5,508.5C 376.657,506.588 378.991,504.921 381.5,503.5C 384.352,501.909 387.352,500.576 390.5,499.5 Z"/></g>
<g><path style="opacity:1" fill="#e6f5e3" d="M 512.5,514.5 C 518.329,514.249 522.995,516.415 526.5,521C 531.381,522.944 536.047,525.11 540.5,527.5C 540.5,528.5 540.5,529.5 540.5,530.5C 532.297,525.899 523.964,521.565 515.5,517.5C 514.694,516.272 513.694,515.272 512.5,514.5 Z"/></g>
<g><path style="opacity:1" fill="#2b7c30" d="M 447.5,480.5 C 451.628,483.898 456.295,486.231 461.5,487.5C 463.214,491.834 466.214,493.834 470.5,493.5C 472.97,494.757 475.303,496.257 477.5,498C 472.854,498.846 472.021,500.679 475,503.5C 475.497,505.81 475.663,508.143 475.5,510.5C 474.167,510.5 472.833,510.5 471.5,510.5C 471.338,512.527 471.505,514.527 472,516.5C 473.011,517.337 474.178,517.67 475.5,517.5C 475.384,511.385 478.384,508.718 484.5,509.5C 484.5,510.5 484.5,511.5 484.5,512.5C 486.527,512.662 488.527,512.495 490.5,512C 487.833,511.333 487.833,510.667 490.5,510C 485.709,508.697 482.376,505.864 480.5,501.5C 488.296,503.029 494.963,506.529 500.5,512C 501.448,512.483 502.448,512.649 503.5,512.5C 504.536,517.388 507.369,519.054 512,517.5C 513.734,519.451 515.901,520.451 518.5,520.5C 521.518,521.977 524.518,523.311 527.5,524.5C 527.5,525.5 527.5,526.5 527.5,527.5C 539.404,532.461 551.071,537.795 562.5,543.5C 562.833,543.5 563.167,543.5 563.5,543.5C 563.286,545.144 563.62,546.644 564.5,548C 566.433,548.251 568.266,548.751 570,549.5C 571.153,552.755 571.987,556.088 572.5,559.5C 571.766,560.708 571.433,562.041 571.5,563.5C 570.596,564.209 570.263,565.209 570.5,566.5C 569.167,567.833 567.833,569.167 566.5,570.5C 557.589,586.138 548.256,601.638 538.5,617C 538.833,617.333 539.167,617.667 539.5,618C 537.845,619.444 537.178,621.278 537.5,623.5C 535.784,623.629 534.117,623.962 532.5,624.5C 526.642,613.435 520.309,602.768 513.5,592.5C 507.523,583.226 502.023,573.559 497,563.5C 486.19,547.348 476.19,530.682 467,513.5C 459.294,503.217 452.794,492.217 447.5,480.5 Z"/></g>
<g><path style="opacity:1" fill="#61a965" d="M 374.5,508.5 C 374.489,510.017 373.823,511.184 372.5,512C 369.5,513.167 366.5,514.333 363.5,515.5C 362.614,516.325 362.281,517.325 362.5,518.5C 355.091,521.388 347.758,524.554 340.5,528C 339.743,529.512 338.743,530.846 337.5,532C 333.724,532.592 330.057,533.592 326.5,535C 323.701,537.872 320.367,539.705 316.5,540.5C 317.694,539.728 318.694,538.728 319.5,537.5C 331.044,530.982 342.71,524.648 354.5,518.5C 360.941,514.728 367.608,511.394 374.5,508.5 Z"/></g>
<g><path style="opacity:1" fill="#3b753f" d="M 515.5,517.5 C 523.964,521.565 532.297,525.899 540.5,530.5C 540.833,530.5 541.167,530.5 541.5,530.5C 548.668,534.583 555.668,538.916 562.5,543.5C 551.071,537.795 539.404,532.461 527.5,527.5C 527.5,526.5 527.5,525.5 527.5,524.5C 524.518,523.311 521.518,521.977 518.5,520.5C 517.306,519.728 516.306,518.728 515.5,517.5 Z"/></g>
<g><path style="opacity:1" fill="#e7f4e4" d="M 566.5,544.5 C 565.391,544.443 564.391,544.11 563.5,543.5C 563.167,543.5 562.833,543.5 562.5,543.5C 555.668,538.916 548.668,534.583 541.5,530.5C 543.017,530.489 544.184,529.823 545,528.5C 545.93,530.552 547.43,532.052 549.5,533C 554.193,535.049 558.859,537.049 563.5,539C 565.607,540.264 566.607,542.097 566.5,544.5 Z"/></g>
<g><path style="opacity:1" fill="#ddf5de" d="M 319.5,537.5 C 318.694,538.728 317.694,539.728 316.5,540.5C 311.855,542.269 307.521,544.603 303.5,547.5C 304.435,544.081 306.768,542.247 310.5,542C 312.522,538.466 315.522,536.966 319.5,537.5 Z"/></g>
<g><path style="opacity:1" fill="#f9f9f9" d="M 758.5,556.5 C 762.41,556.263 766.077,557.096 769.5,559C 786.578,569.068 803.912,578.734 821.5,588C 822.701,588.903 823.535,590.069 824,591.5C 824.978,614.255 824.645,636.922 823,659.5C 803.245,671.545 782.911,682.545 762,692.5C 741.831,682.665 721.998,672.165 702.5,661C 701.299,660.097 700.465,658.931 700,657.5C 699.022,634.745 699.355,612.078 701,589.5C 720.474,578.852 739.641,567.852 758.5,556.5 Z"/></g>
<g><path style="opacity:1" fill="#344443" d="M 624.5,559.5 C 625.833,580.323 626.5,601.489 626.5,623C 626.5,644.511 625.833,665.677 624.5,686.5C 624.5,644.167 624.5,601.833 624.5,559.5 Z"/></g>
<g><path style="opacity:1" fill="#364443" d="M 274.5,560.5 C 274.5,618.5 274.5,676.5 274.5,734.5C 273.778,734.918 273.278,735.584 273,736.5C 272.333,677.5 272.333,618.5 273,559.5C 273.383,560.056 273.883,560.389 274.5,560.5 Z"/></g>
<g><path style="opacity:1" fill="#417d46" d="M 299.5,557.5 C 300.404,558.209 300.737,559.209 300.5,560.5C 300.168,603.003 300.501,645.337 301.5,687.5C 301.335,690.518 301.502,693.518 302,696.5C 304.016,697.955 304.849,699.955 304.5,702.5C 311.513,707.273 319.179,711.107 327.5,714C 330.083,716.755 332.749,719.255 335.5,721.5C 325.892,716.361 316.225,711.194 306.5,706C 302.71,703.394 300.377,699.894 299.5,695.5C 299.5,649.5 299.5,603.5 299.5,557.5 Z"/></g>
<g><path style="opacity:1" fill="#4ea552" d="M 316.5,540.5 C 313.703,542.795 311.036,545.295 308.5,548C 304.059,547.911 302.726,549.745 304.5,553.5C 306.936,553.683 309.103,553.016 311,551.5C 312.067,552.191 313.234,552.691 314.5,553C 311.193,556.564 307.527,557.064 303.5,554.5C 302.119,555 301.453,556 301.5,557.5C 302.998,559.829 304.998,561.663 307.5,563C 306.262,562.923 305.262,563.089 304.5,563.5C 305.833,564.5 307.167,565.5 308.5,566.5C 308.167,567.167 307.833,567.833 307.5,568.5C 308.891,568.109 309.891,568.942 310.5,571C 309.748,571.671 309.414,572.504 309.5,573.5C 306.409,570.044 304.076,566.044 302.5,561.5C 302.043,560.702 301.376,560.369 300.5,560.5C 300.737,559.209 300.404,558.209 299.5,557.5C 299.731,553.707 301.065,550.374 303.5,547.5C 307.521,544.603 311.855,542.269 316.5,540.5 Z"/></g>
<g><path style="opacity:1" fill="#368938" d="M 571.5,563.5 C 571.5,605.167 571.5,646.833 571.5,688.5C 568.447,682.075 564.614,676.075 560,670.5C 558.197,664.513 555.03,659.513 550.5,655.5C 549.185,652.588 548.018,649.588 547,646.5C 541.521,639.535 536.687,632.201 532.5,624.5C 534.117,623.962 535.784,623.629 537.5,623.5C 537.178,621.278 537.845,619.444 539.5,618C 539.167,617.667 538.833,617.333 538.5,617C 548.256,601.638 557.589,586.138 566.5,570.5C 566.176,604.384 566.676,638.384 568,672.5C 569.187,637.288 570.02,601.955 570.5,566.5C 570.263,565.209 570.596,564.209 571.5,563.5 Z"/></g>
<g><path style="opacity:1" fill="#eaf9e6" d="M 303.5,547.5 C 301.065,550.374 299.731,553.707 299.5,557.5C 299.5,603.5 299.5,649.5 299.5,695.5C 298.335,647.002 298.168,598.335 299,549.5C 299.698,546.589 301.198,545.923 303.5,547.5 Z"/></g>
<g><path style="opacity:1" fill="#328e36" d="M 570.5,566.5 C 570.02,601.955 569.187,637.288 568,672.5C 566.676,638.384 566.176,604.384 566.5,570.5C 567.833,569.167 569.167,567.833 570.5,566.5 Z"/></g>
<g><path style="opacity:1" fill="#378939" d="M 300.5,560.5 C 301.376,560.369 302.043,560.702 302.5,561.5C 304.076,566.044 306.409,570.044 309.5,573.5C 313.725,581.018 318.225,588.352 323,595.5C 328.89,606.273 335.057,616.94 341.5,627.5C 337.643,630.179 334.977,633.845 333.5,638.5C 330.495,641.472 327.829,644.639 325.5,648C 325.5,649 325.5,650 325.5,651C 322.035,654.087 319.702,657.92 318.5,662.5C 317.975,663.192 317.308,663.692 316.5,664C 316.833,664.333 317.167,664.667 317.5,665C 316.167,666 314.833,667 313.5,668C 313.833,668.333 314.167,668.667 314.5,669C 312.85,671.813 310.85,674.313 308.5,676.5C 308.709,677.086 309.043,677.586 309.5,678C 306.946,681.377 304.279,684.544 301.5,687.5C 300.501,645.337 300.168,603.003 300.5,560.5 Z"/></g>
<g><path style="opacity:1" fill="#458248" d="M 572.5,559.5 C 573.45,602.479 573.784,645.479 573.5,688.5C 573.167,688.5 572.833,688.5 572.5,688.5C 572.167,688.5 571.833,688.5 571.5,688.5C 571.5,646.833 571.5,605.167 571.5,563.5C 571.433,562.041 571.766,560.708 572.5,559.5 Z"/></g>
<g><path style="opacity:1" fill="#497b4b" d="M 563.5,543.5 C 564.391,544.11 565.391,544.443 566.5,544.5C 569.858,546.7 572.358,549.7 574,553.5C 574.832,601.668 574.665,649.668 573.5,697.5C 573.5,694.5 573.5,691.5 573.5,688.5C 573.784,645.479 573.45,602.479 572.5,559.5C 571.987,556.088 571.153,552.755 570,549.5C 568.266,548.751 566.433,548.251 564.5,548C 563.62,546.644 563.286,545.144 563.5,543.5 Z"/></g>
<g><path style="opacity:1" fill="#e1f8e2" d="M 543.5,719.5 C 543.5,718.833 543.833,718.5 544.5,718.5C 552.14,714.346 559.806,710.179 567.5,706C 570.531,703.817 572.531,700.984 573.5,697.5C 574.665,649.668 574.832,601.668 574,553.5C 572.358,549.7 569.858,546.7 566.5,544.5C 568.438,543.539 569.938,544.205 571,546.5C 571.333,546.167 571.667,545.833 572,545.5C 572.615,547.116 573.615,548.449 575,549.5C 575.667,599.833 575.667,650.167 575,700.5C 573.619,704.221 571.119,707.054 567.5,709C 560.937,711.897 554.603,715.23 548.5,719C 546.866,719.494 545.199,719.66 543.5,719.5 Z"/></g>
<g><path style="opacity:1" fill="#344443" d="M 199.5,591.5 C 200.117,591.611 200.617,591.944 201,592.5C 201.667,629.167 201.667,665.833 201,702.5C 200.617,703.056 200.117,703.389 199.5,703.5C 199.5,666.167 199.5,628.833 199.5,591.5 Z"/></g>
<g><path style="opacity:1" fill="#dff4e0" d="M 1067.5,601.5 C 1065.63,600.986 1063.8,600.32 1062,599.5C 1056.69,602.57 1051.19,605.237 1045.5,607.5C 1048.91,604.048 1052.91,601.215 1057.5,599C 1060.17,598.333 1062.83,598.333 1065.5,599C 1066.76,599.417 1067.42,600.25 1067.5,601.5 Z"/></g>
<g><path style="opacity:1" fill="#368939" d="M 1070.5,604.5 C 1070.83,604.5 1071.17,604.5 1071.5,604.5C 1071.41,605.496 1071.75,606.329 1072.5,607C 1075.79,609.226 1079.29,611.06 1083,612.5C 1083.5,620.827 1083.67,629.16 1083.5,637.5C 1082.49,638.674 1081.15,639.34 1079.5,639.5C 1075.38,640.727 1071.38,642.227 1067.5,644C 1066.59,645.914 1065.09,647.081 1063,647.5C 1060.68,646.129 1058.18,645.462 1055.5,645.5C 1055.59,644.504 1055.25,643.671 1054.5,643C 1048.55,640.26 1044.22,635.926 1041.5,630C 1044.34,628.69 1047.01,627.856 1049.5,627.5C 1050.58,626.635 1050.75,625.635 1050,624.5C 1048.79,623.929 1047.63,623.262 1046.5,622.5C 1047.83,621.5 1049.17,620.5 1050.5,619.5C 1050.02,618.522 1049.36,617.689 1048.5,617C 1045.64,616.73 1042.97,615.896 1040.5,614.5C 1046.51,609.829 1052.84,605.662 1059.5,602C 1061.17,601.333 1062.83,601.333 1064.5,602C 1066.22,603.559 1068.22,604.392 1070.5,604.5 Z"/></g>
<g><path style="opacity:1" fill="#49804e" d="M 1071.5,604.5 C 1075.56,606.948 1079.73,609.281 1084,611.5C 1084.82,620.343 1084.66,629.01 1083.5,637.5C 1083.67,629.16 1083.5,620.827 1083,612.5C 1079.29,611.06 1075.79,609.226 1072.5,607C 1071.75,606.329 1071.41,605.496 1071.5,604.5 Z"/></g>
<g><path style="opacity:1" fill="#3f8643" d="M 1067.5,601.5 C 1068.31,602.728 1069.31,603.728 1070.5,604.5C 1068.22,604.392 1066.22,603.559 1064.5,602C 1062.83,601.333 1061.17,601.333 1059.5,602C 1052.84,605.662 1046.51,609.829 1040.5,614.5C 1042.97,615.896 1045.64,616.73 1048.5,617C 1049.36,617.689 1050.02,618.522 1050.5,619.5C 1049.17,620.5 1047.83,621.5 1046.5,622.5C 1047.63,623.262 1048.79,623.929 1050,624.5C 1050.75,625.635 1050.58,626.635 1049.5,627.5C 1047.01,627.856 1044.34,628.69 1041.5,630C 1044.22,635.926 1048.55,640.26 1054.5,643C 1055.25,643.671 1055.59,644.504 1055.5,645.5C 1050,643.497 1044.83,640.83 1040,637.5C 1039.5,628.84 1039.33,620.173 1039.5,611.5C 1041.88,610.649 1043.88,609.316 1045.5,607.5C 1051.19,605.237 1056.69,602.57 1062,599.5C 1063.8,600.32 1065.63,600.986 1067.5,601.5 Z"/></g>
<g><path style="opacity:1" fill="#49a84d" d="M 513.5,592.5 C 520.309,602.768 526.642,613.435 532.5,624.5C 536.687,632.201 541.521,639.535 547,646.5C 548.018,649.588 549.185,652.588 550.5,655.5C 549.5,655.5 548.5,655.5 547.5,655.5C 547.5,654.167 547.5,652.833 547.5,651.5C 545.408,651.439 543.908,650.439 543,648.5C 540.123,643.927 537.456,638.593 535,632.5C 533.301,631.594 531.467,631.261 529.5,631.5C 529.62,629.801 529.954,628.135 530.5,626.5C 528.639,624.112 527.306,621.446 526.5,618.5C 524.803,617.636 523.637,616.303 523,614.5C 522.667,614.833 522.333,615.167 522,615.5C 522.259,611.336 520.759,608.003 517.5,605.5C 517.709,604.914 518.043,604.414 518.5,604C 517.207,603.51 515.873,603.343 514.5,603.5C 514.863,601.089 513.863,599.589 511.5,599C 513.991,598.374 513.991,597.541 511.5,596.5C 512.853,595.476 513.52,594.143 513.5,592.5 Z"/></g>
<g><path style="opacity:1" fill="#2b7c30" d="M 341.5,627.5 C 370.083,675.113 398.75,722.78 427.5,770.5C 425.883,769.962 424.216,769.629 422.5,769.5C 414.324,764.912 405.991,760.578 397.5,756.5C 394.869,754.847 392.203,753.181 389.5,751.5C 389.372,749.91 388.705,748.577 387.5,747.5C 382.323,744.411 376.99,741.578 371.5,739C 370.207,738.51 368.873,738.343 367.5,738.5C 367.5,737.167 367.5,735.833 367.5,734.5C 359.53,731.509 351.53,728.509 343.5,725.5C 340.515,724.674 337.849,723.341 335.5,721.5C 332.749,719.255 330.083,716.755 327.5,714C 319.179,711.107 311.513,707.273 304.5,702.5C 304.849,699.955 304.016,697.955 302,696.5C 301.502,693.518 301.335,690.518 301.5,687.5C 304.279,684.544 306.946,681.377 309.5,678C 309.043,677.586 308.709,677.086 308.5,676.5C 310.85,674.313 312.85,671.813 314.5,669C 314.167,668.667 313.833,668.333 313.5,668C 314.833,667 316.167,666 317.5,665C 317.167,664.667 316.833,664.333 316.5,664C 317.308,663.692 317.975,663.192 318.5,662.5C 319.702,657.92 322.035,654.087 325.5,651C 325.5,650 325.5,649 325.5,648C 327.829,644.639 330.495,641.472 333.5,638.5C 334.977,633.845 337.643,630.179 341.5,627.5 Z"/></g>
<g><path style="opacity:1" fill="#dcecdb" d="M 1039.5,611.5 C 1039.33,620.173 1039.5,628.84 1040,637.5C 1044.83,640.83 1050,643.497 1055.5,645.5C 1056.31,646.728 1057.31,647.728 1058.5,648.5C 1058.44,649.043 1058.11,649.376 1057.5,649.5C 1052.8,648.159 1048.13,646.659 1043.5,645C 1043.83,644.667 1044.17,644.333 1044.5,644C 1042.87,641.98 1041.04,640.147 1039,638.5C 1038.18,629.324 1038.34,620.324 1039.5,611.5 Z"/></g>
<g><path style="opacity:1" fill="#4f8652" d="M 1079.5,639.5 C 1074.4,642.892 1069.06,646.059 1063.5,649C 1061.8,649.384 1060.14,649.218 1058.5,648.5C 1057.31,647.728 1056.31,646.728 1055.5,645.5C 1058.18,645.462 1060.68,646.129 1063,647.5C 1065.09,647.081 1066.59,645.914 1067.5,644C 1071.38,642.227 1075.38,640.727 1079.5,639.5 Z"/></g>
<g><path style="opacity:1" fill="#59a35c" d="M 572.5,688.5 C 572.833,688.5 573.167,688.5 573.5,688.5C 573.5,691.5 573.5,694.5 573.5,697.5C 572.531,700.984 570.531,703.817 567.5,706C 559.806,710.179 552.14,714.346 544.5,718.5C 546.584,716.576 548.584,714.409 550.5,712C 554.804,710.487 558.804,708.487 562.5,706C 564.487,704.681 565.654,702.848 566,700.5C 566.333,700.833 566.667,701.167 567,701.5C 568.049,699.893 569.549,699.227 571.5,699.5C 572.244,695.881 572.577,692.215 572.5,688.5 Z"/></g>
<g><path style="opacity:1" fill="#56a656" d="M 541.5,719.5 C 526.167,728.5 510.833,737.5 495.5,746.5C 492.378,747.561 489.378,748.895 486.5,750.5C 487.171,749.153 487.171,747.986 486.5,747C 491.495,744.942 496.495,742.775 501.5,740.5C 504.934,737.719 508.601,735.386 512.5,733.5C 511.294,731.484 511.294,729.484 512.5,727.5C 515.867,729.975 518.867,729.809 521.5,727C 518.032,725.03 514.699,722.864 511.5,720.5C 511.808,719.692 512.308,719.025 513,718.5C 517.094,721.477 521.594,723.477 526.5,724.5C 531.645,723.085 536.645,721.418 541.5,719.5 Z"/></g>
<g><path style="opacity:1" fill="#3b763f" d="M 343.5,725.5 C 351.53,728.509 359.53,731.509 367.5,734.5C 367.5,735.833 367.5,737.167 367.5,738.5C 368.873,738.343 370.207,738.51 371.5,739C 376.99,741.578 382.323,744.411 387.5,747.5C 388.705,748.577 389.372,749.91 389.5,751.5C 378.806,745.821 368.14,740.154 357.5,734.5C 352.833,731.5 348.167,728.5 343.5,725.5 Z"/></g>
<g><path style="opacity:1" fill="#e7f5e6" d="M 357.5,734.5 C 368.14,740.154 378.806,745.821 389.5,751.5C 392.203,753.181 394.869,754.847 397.5,756.5C 396.883,756.611 396.383,756.944 396,757.5C 393.345,755.947 390.512,754.78 387.5,754C 381.552,749.778 375.386,745.945 369,742.5C 368.282,743.451 367.449,743.617 366.5,743C 364.33,741.414 361.996,740.08 359.5,739C 359.833,738.667 360.167,738.333 360.5,738C 358.937,737.241 357.937,736.074 357.5,734.5 Z"/></g>
<g><path style="opacity:1" fill="#dbf5dc" d="M 495.5,746.5 C 492.482,749.202 489.149,751.702 485.5,754C 482.647,755.43 479.647,756.263 476.5,756.5C 479.167,754.833 481.833,753.167 484.5,751.5C 485.167,751.167 485.833,750.833 486.5,750.5C 489.378,748.895 492.378,747.561 495.5,746.5 Z"/></g>
<g><path style="opacity:1" fill="#5aa55d" d="M 484.5,751.5 C 481.833,753.167 479.167,754.833 476.5,756.5C 472.473,758.513 468.473,760.513 464.5,762.5C 464.682,760.409 464.348,758.409 463.5,756.5C 464,756.167 464.5,755.833 465,755.5C 467.92,757.823 471.086,758.156 474.5,756.5C 474.5,755.5 474.5,754.5 474.5,753.5C 477.983,753.309 481.316,752.643 484.5,751.5 Z"/></g>
<g><path style="opacity:1" fill="#e2f6e0" d="M 455.5,768.5 C 455.5,769.5 455.5,770.5 455.5,771.5C 450.128,773.909 444.628,776.242 439,778.5C 436.328,777.718 433.828,776.718 431.5,775.5C 435.182,775.665 438.848,775.499 442.5,775C 446.886,772.807 451.22,770.64 455.5,768.5 Z"/></g>
<g><path style="opacity:1" fill="#589b5c" d="M 464.5,762.5 C 461.328,764.252 458.328,766.252 455.5,768.5C 451.22,770.64 446.886,772.807 442.5,775C 438.848,775.499 435.182,775.665 431.5,775.5C 428.5,773.5 425.5,771.5 422.5,769.5C 424.216,769.629 425.883,769.962 427.5,770.5C 428.683,771.504 430.016,772.338 431.5,773C 441.937,774.408 450.603,771.075 457.5,763C 459.81,762.503 462.143,762.337 464.5,762.5 Z"/></g>
</svg>
