<?xml version="1.0" encoding="UTF-8"?>
<!DOCTYPE svg PUBLIC "-//W3C//DTD SVG 1.1//EN" "http://www.w3.org/Graphics/SVG/1.1/DTD/svg11.dtd">
<svg xmlns="http://www.w3.org/2000/svg" version="1.1" width="960px" height="936px" style="shape-rendering:geometricPrecision; text-rendering:geometricPrecision; image-rendering:optimizeQuality; fill-rule:evenodd; clip-rule:evenodd" xmlns:xlink="http://www.w3.org/1999/xlink">
<g><path style="opacity:1" fill="#001932" d="M 150.5,-0.5 C 369.833,-0.5 589.167,-0.5 808.5,-0.5C 880.796,10.9581 928.962,51.2914 953,120.5C 955.639,130.541 957.806,140.541 959.5,150.5C 959.5,361.833 959.5,573.167 959.5,784.5C 948.042,856.796 907.709,904.962 838.5,929C 828.461,931.639 818.461,933.805 808.5,935.5C 589.167,935.5 369.833,935.5 150.5,935.5C 78.2045,924.042 30.0378,883.709 6,814.5C 3.36072,804.459 1.19405,794.459 -0.5,784.5C -0.5,573.167 -0.5,361.833 -0.5,150.5C 10.956,78.2063 51.2894,30.0396 120.5,6C 130.539,3.36117 140.539,1.1945 150.5,-0.5 Z"/></g>
<g><path style="opacity:1" fill="#2aa1f9" d="M 305.5,237.5 C 336.636,236.463 367.636,237.963 398.5,242C 482.445,261.054 521.945,313.554 517,399.5C 510.916,454.91 482.083,493.076 430.5,514C 409.133,521.508 387.133,525.841 364.5,527C 343.836,527.5 323.169,527.667 302.5,527.5C 302.667,571.168 302.5,614.835 302,658.5C 301.167,659.333 300.333,660.167 299.5,661C 272.5,661.667 245.5,661.667 218.5,661C 217.333,660.5 216.5,659.667 216,658.5C 215.333,519.5 215.333,380.5 216,241.5C 216.5,241 217,240.5 217.5,240C 247.008,239.634 276.342,238.8 305.5,237.5 Z"/></g>
<g><path style="opacity:1" fill="#001932" d="M 306.5,316.5 C 326.169,316.333 345.836,316.5 365.5,317C 382.472,319.096 397.805,325.096 411.5,335C 427.702,351.941 433.868,372.108 430,395.5C 426.503,416.334 415.336,431.5 396.5,441C 366.341,451.951 335.341,455.451 303.5,451.5C 303.5,406.833 303.5,362.167 303.5,317.5C 304.791,317.737 305.791,317.404 306.5,316.5 Z"/></g>
<g><path style="opacity:1" fill="#06385d" d="M 306.5,316.5 C 305.791,317.404 304.791,317.737 303.5,317.5C 303.5,362.167 303.5,406.833 303.5,451.5C 302.501,406.67 302.168,361.67 302.5,316.5C 303.833,316.5 305.167,316.5 306.5,316.5 Z"/></g>
<g><path style="opacity:1" fill="#2aa1f9" d="M 670.5,336.5 C 699.475,335.665 728.141,338.165 756.5,344C 762.091,346.197 767.758,348.197 773.5,350C 774.333,350.833 775.167,351.667 776,352.5C 776.667,376.833 776.667,401.167 776,425.5C 773.503,427.478 770.669,427.978 767.5,427C 733.04,411.257 697.04,405.923 659.5,411C 645.502,416.487 641.668,425.987 648,439.5C 651.201,443.036 654.701,446.203 658.5,449C 673.798,457.65 689.798,464.65 706.5,470C 729.827,479.071 750.994,491.571 770,507.5C 791.055,531.067 798.055,558.4 791,589.5C 782.119,622.716 761.619,645.55 729.5,658C 699.943,667.756 669.609,671.423 638.5,669C 617.692,667.314 597.359,663.314 577.5,657C 571.297,654.984 565.797,651.817 561,647.5C 560.176,622.124 560.343,596.791 561.5,571.5C 562.723,570.386 564.056,570.219 565.5,571C 602.28,591.48 641.613,599.48 683.5,595C 689.116,593.794 694.45,591.794 699.5,589C 708.192,580.257 708.692,571.09 701,561.5C 698.167,559.333 695.333,557.167 692.5,555C 669.167,544.667 645.833,534.333 622.5,524C 599.163,512.996 581.33,496.163 569,473.5C 551.823,423.725 564.989,384.225 608.5,355C 627.924,344.244 648.591,338.077 670.5,336.5 Z"/></g>
</svg>
