<?xml version="1.0" encoding="UTF-8"?>
<!DOCTYPE svg PUBLIC "-//W3C//DTD SVG 1.1//EN" "http://www.w3.org/Graphics/SVG/1.1/DTD/svg11.dtd">
<svg xmlns="http://www.w3.org/2000/svg" version="1.1" width="225px" height="225px" style="shape-rendering:geometricPrecision; text-rendering:geometricPrecision; image-rendering:optimizeQuality; fill-rule:evenodd; clip-rule:evenodd" xmlns:xlink="http://www.w3.org/1999/xlink">
<g><path style="opacity:1" fill="#f9f9fa" d="M -0.5,-0.5 C 74.5,-0.5 149.5,-0.5 224.5,-0.5C 224.5,74.5 224.5,149.5 224.5,224.5C 149.5,224.5 74.5,224.5 -0.5,224.5C -0.5,149.5 -0.5,74.5 -0.5,-0.5 Z"/></g>
<g><path style="opacity:1" fill="#60d4fa" d="M 63.5,13.5 C 77.0874,13.7948 89.0874,18.2948 99.5,27C 103.678,30.5135 107.845,34.0135 112,37.5C 122.065,27.8786 133.565,20.3786 146.5,15C 163.575,11.1203 174.409,17.6203 179,34.5C 180.059,47.3106 179.226,59.9773 176.5,72.5C 176.833,73.5 177.167,74.5 177.5,75.5C 194.294,79.1375 208.127,87.4708 219,100.5C 224.512,113.528 221.679,124.361 210.5,133C 200.299,140.6 188.965,145.767 176.5,148.5C 180.085,164.169 180.251,179.836 177,195.5C 170.708,208.494 160.541,212.994 146.5,209C 133.565,203.621 122.065,196.121 112,186.5C 103.143,194.683 93.31,201.517 82.5,207C 62.9077,214.925 50.4077,208.758 45,188.5C 43.9496,175.035 44.783,161.702 47.5,148.5C 30.29,145.152 16.1234,136.819 5,123.5C -0.512261,110.472 2.32107,99.6387 13.5,91C 23.7118,83.3945 35.0451,78.2278 47.5,75.5C 44.7652,61.9787 43.9319,48.3121 45,34.5C 47.2064,23.805 53.3731,16.805 63.5,13.5 Z"/></g>
<g><path style="opacity:1" fill="#f8f9fa" d="M 64.5,23.5 C 75.4699,23.9828 85.1365,27.8161 93.5,35C 97.5918,38.0475 101.258,41.5475 104.5,45.5C 98.3799,52.9087 92.3799,60.4087 86.5,68C 77.3656,68.7663 68.3656,70.2663 59.5,72.5C 58.3527,72.1822 57.5194,71.5156 57,70.5C 54.6432,58.939 53.9765,47.2724 55,35.5C 56.526,30.0719 59.6926,26.0719 64.5,23.5 Z"/></g>
<g><path style="opacity:1" fill="#f9f9fa" d="M 151.5,23.5 C 159.715,22.5784 165.215,25.9118 168,33.5C 170.129,46.5885 169.629,59.5885 166.5,72.5C 156.929,70.4755 147.263,68.9755 137.5,68C 131.62,60.4087 125.62,52.9087 119.5,45.5C 128.303,35.348 138.97,28.0146 151.5,23.5 Z"/></g>
<g><path style="opacity:1" fill="#f7f9fa" d="M 122.5,65.5 C 115.5,66.8333 108.5,66.8333 101.5,65.5C 104.787,61.041 108.287,56.7077 112,52.5C 115.713,56.7077 119.213,61.041 122.5,65.5 Z"/></g>
<g><path style="opacity:1" fill="#b7e9fa" d="M 101.5,65.5 C 108.5,66.8333 115.5,66.8333 122.5,65.5C 123.043,65.56 123.376,65.8933 123.5,66.5C 115.833,67.8333 108.167,67.8333 100.5,66.5C 100.624,65.8933 100.957,65.56 101.5,65.5 Z"/></g>
<g><path style="opacity:1" fill="#f7f9fa" d="M 96.5,76.5 C 106.172,76.3335 115.839,76.5002 125.5,77C 127.9,77.1858 130.234,77.6858 132.5,78.5C 139.726,89.1143 146.059,100.281 151.5,112C 146.101,124.14 139.434,135.473 131.5,146C 118.486,147.955 105.486,147.955 92.5,146C 85.02,135.177 78.3533,123.844 72.5,112C 77.8503,100.663 84.017,89.8292 91,79.5C 92.7189,78.1312 94.5522,77.1312 96.5,76.5 Z"/></g>
<g><path style="opacity:1" fill="#f6f9fa" d="M 71.5,79.5 C 73.8568,79.3367 76.1902,79.5034 78.5,80C 74.7927,86.5823 70.9594,93.0823 67,99.5C 64.5389,93.9506 62.3722,88.2839 60.5,82.5C 64.2133,81.2223 67.88,80.2223 71.5,79.5 Z"/></g>
<g><path style="opacity:1" fill="#f7f9fa" d="M 145.5,79.5 C 151.658,79.9149 157.658,81.0816 163.5,83C 161.537,88.5511 159.37,94.0511 157,99.5C 152.89,92.9417 149.057,86.275 145.5,79.5 Z"/></g>
<g><path style="opacity:1" fill="#f8f9fa" d="M 46.5,85.5 C 48.1439,85.2865 49.6439,85.6198 51,86.5C 54.3134,94.9574 57.48,103.457 60.5,112C 57.1464,121.21 53.6464,130.376 50,139.5C 36.825,135.788 25.1583,129.455 15,120.5C 9.90143,112.127 11.4014,104.961 19.5,99C 28.0345,93.3994 37.0345,88.8994 46.5,85.5 Z"/></g>
<g><path style="opacity:1" fill="#f8f9fa" d="M 173.5,84.5 C 186.849,88.0901 198.683,94.4234 209,103.5C 210.588,106.174 211.755,109.008 212.5,112C 210.8,119.036 206.8,124.37 200.5,128C 191.753,133.192 182.419,136.692 172.5,138.5C 170.156,129.309 166.823,120.475 162.5,112C 166.865,103.104 170.532,93.9378 173.5,84.5 Z"/></g>
<g><path style="opacity:1" fill="#5ed4fa" d="M 105.5,92.5 C 124.649,90.8153 133.149,99.4819 131,118.5C 125.939,129.446 117.439,133.613 105.5,131C 94.5536,125.939 90.387,117.439 93,105.5C 95.3531,99.3154 99.5198,94.982 105.5,92.5 Z"/></g>
<g><path style="opacity:1" fill="#f6f9fa" d="M 66.5,124.5 C 70.7253,130.6 74.7253,136.933 78.5,143.5C 77.5,143.833 76.5,144.167 75.5,144.5C 70.5625,143.312 65.5625,142.645 60.5,142.5C 61.9339,136.302 63.9339,130.302 66.5,124.5 Z"/></g>
<g><path style="opacity:1" fill="#f7f9fa" d="M 156.5,124.5 C 159.6,130.121 161.933,136.121 163.5,142.5C 157.5,143.336 151.5,143.836 145.5,144C 149.395,137.611 153.061,131.111 156.5,124.5 Z"/></g>
<g><path style="opacity:1" fill="#f8f9fa" d="M 57.5,151.5 C 67.0837,153.399 76.7504,154.899 86.5,156C 92.2136,163.258 98.0469,170.425 104,177.5C 104.667,178.167 104.667,178.833 104,179.5C 94.2408,190.378 82.2408,197.378 68,200.5C 60.0495,199.306 55.7161,194.639 55,186.5C 53.812,174.651 54.6454,162.984 57.5,151.5 Z"/></g>
<g><path style="opacity:1" fill="#f8f9fa" d="M 163.5,151.5 C 165.124,151.36 166.29,152.027 167,153.5C 169.858,165.76 170.191,178.093 168,190.5C 166.361,196.971 162.194,200.304 155.5,200.5C 141.48,197.238 129.646,190.238 120,179.5C 119.333,178.833 119.333,178.167 120,177.5C 125.953,170.425 131.786,163.258 137.5,156C 146.384,154.966 155.051,153.466 163.5,151.5 Z"/></g>
<g><path style="opacity:1" fill="#f7f9fa" d="M 100.5,158.5 C 107.989,157.344 115.655,157.178 123.5,158C 119.667,162.5 115.833,167 112,171.5C 108.301,166.973 104.468,162.639 100.5,158.5 Z"/></g>
</svg>
