<?xml version="1.0" encoding="UTF-8"?>
<!DOCTYPE svg PUBLIC "-//W3C//DTD SVG 1.1//EN" "http://www.w3.org/Graphics/SVG/1.1/DTD/svg11.dtd">
<svg xmlns="http://www.w3.org/2000/svg" version="1.1" width="225px" height="225px" style="shape-rendering:geometricPrecision; text-rendering:geometricPrecision; image-rendering:optimizeQuality; fill-rule:evenodd; clip-rule:evenodd" xmlns:xlink="http://www.w3.org/1999/xlink">
<g><path style="opacity:1" fill="#f9f9f9" d="M -0.5,-0.5 C 33.8333,-0.5 68.1667,-0.5 102.5,-0.5C 102.5,-0.166667 102.5,0.166667 102.5,0.5C 72.6977,17.2353 43.0311,34.2353 13.5,51.5C 12.1667,86.5 12.1667,121.5 13.5,156.5C 14.1067,156.376 14.44,156.043 14.5,155.5C 25.5521,149.557 36.3854,143.223 47,136.5C 47.3333,122.5 47.6667,108.5 48,94.5C 48.414,94.0426 48.914,93.7093 49.5,93.5C 64.5795,101.788 79.4129,110.455 94,119.5C 94.833,136.843 94.6663,154.176 93.5,171.5C 92.914,171.709 92.414,172.043 92,172.5C 79.7517,165.626 67.5851,158.626 55.5,151.5C 44.2978,157.93 33.2978,164.597 22.5,171.5C 51.4957,189.334 80.8291,206.667 110.5,223.5C 111.167,223.5 111.5,223.833 111.5,224.5C 74.1667,224.5 36.8333,224.5 -0.5,224.5C -0.5,149.5 -0.5,74.5 -0.5,-0.5 Z"/></g>
<g><path style="opacity:1" fill="#b5b5b5" d="M 102.5,0.5 C 102.5,0.166667 102.5,-0.166667 102.5,-0.5C 103.167,-0.5 103.833,-0.5 104.5,-0.5C 104.829,13.0105 104.496,26.3438 103.5,39.5C 103.829,26.3226 103.495,13.3226 102.5,0.5 Z"/></g>
<g><path style="opacity:1" fill="#f9f9f9" d="M 104.5,-0.5 C 109.833,-0.5 115.167,-0.5 120.5,-0.5C 120.333,12.8375 120.5,26.1708 121,39.5C 133.447,46.6353 145.613,54.1353 157.5,62C 144.029,70.5728 130.362,78.9062 116.5,87C 114.635,88.3014 112.635,88.6347 110.5,88C 95.8859,79.7026 81.5526,71.036 67.5,62C 79.3669,54.2361 91.3669,46.7361 103.5,39.5C 104.496,26.3438 104.829,13.0105 104.5,-0.5 Z"/></g>
<g><path style="opacity:1" fill="#f8f8f8" d="M 121.5,-0.5 C 155.833,-0.5 190.167,-0.5 224.5,-0.5C 224.5,74.5 224.5,149.5 224.5,224.5C 187.167,224.5 149.833,224.5 112.5,224.5C 112.5,224.167 112.5,223.833 112.5,223.5C 142.608,206.61 172.608,189.443 202.5,172C 191.292,165.231 179.959,158.731 168.5,152.5C 157.88,157.811 147.546,163.644 137.5,170C 135.091,171.707 132.425,172.54 129.5,172.5C 129.18,154.786 129.514,137.12 130.5,119.5C 145.167,110.833 159.833,102.167 174.5,93.5C 175.086,93.7093 175.586,94.0426 176,94.5C 176.167,108.845 176.667,123.178 177.5,137.5C 188.364,144.098 199.364,150.431 210.5,156.5C 211.499,122.573 211.833,87.9065 211.5,52.5C 181.5,34.8333 151.5,17.1667 121.5,-0.5 Z"/></g>
<g><path style="opacity:1" fill="#7c7c7c" d="M 120.5,-0.5 C 120.833,-0.5 121.167,-0.5 121.5,-0.5C 151.5,17.1667 181.5,34.8333 211.5,52.5C 210.508,52.3284 209.842,52.6618 209.5,53.5C 177.003,71.914 144.67,90.5807 112.5,109.5C 112.167,109.5 111.833,109.5 111.5,109.5C 79.0882,90.2969 46.4215,71.6302 13.5,53.5C 13.1683,87.6708 13.5017,121.671 14.5,155.5C 14.44,156.043 14.1067,156.376 13.5,156.5C 12.1667,121.5 12.1667,86.5 13.5,51.5C 43.0311,34.2353 72.6977,17.2353 102.5,0.5C 103.495,13.3226 103.829,26.3226 103.5,39.5C 91.3669,46.7361 79.3669,54.2361 67.5,62C 81.5526,71.036 95.8859,79.7026 110.5,88C 112.635,88.6347 114.635,88.3014 116.5,87C 130.362,78.9062 144.029,70.5728 157.5,62C 145.613,54.1353 133.447,46.6353 121,39.5C 120.5,26.1708 120.333,12.8375 120.5,-0.5 Z"/></g>
<g><path style="opacity:1" fill="#010101" d="M 209.5,53.5 C 210.498,87.6626 210.832,121.996 210.5,156.5C 199.364,150.431 188.364,144.098 177.5,137.5C 176.667,123.178 176.167,108.845 176,94.5C 175.586,94.0426 175.086,93.7093 174.5,93.5C 159.833,102.167 145.167,110.833 130.5,119.5C 129.514,137.12 129.18,154.786 129.5,172.5C 132.425,172.54 135.091,171.707 137.5,170C 147.546,163.644 157.88,157.811 168.5,152.5C 179.959,158.731 191.292,165.231 202.5,172C 172.608,189.443 142.608,206.61 112.5,223.5C 112.5,185.5 112.5,147.5 112.5,109.5C 144.67,90.5807 177.003,71.914 209.5,53.5 Z"/></g>
<g><path style="opacity:1" fill="#444444" d="M 209.5,53.5 C 209.842,52.6618 210.508,52.3284 211.5,52.5C 211.833,87.9065 211.499,122.573 210.5,156.5C 210.832,121.996 210.498,87.6626 209.5,53.5 Z"/></g>
<g><path style="opacity:1" fill="#4a4a4a" d="M 111.5,109.5 C 111.827,147.573 111.493,185.573 110.5,223.5C 80.8291,206.667 51.4957,189.334 22.5,171.5C 33.2978,164.597 44.2978,157.93 55.5,151.5C 67.5851,158.626 79.7517,165.626 92,172.5C 92.414,172.043 92.914,171.709 93.5,171.5C 94.6663,154.176 94.833,136.843 94,119.5C 79.4129,110.455 64.5795,101.788 49.5,93.5C 48.914,93.7093 48.414,94.0426 48,94.5C 47.6667,108.5 47.3333,122.5 47,136.5C 36.3854,143.223 25.5521,149.557 14.5,155.5C 13.5017,121.671 13.1683,87.6708 13.5,53.5C 46.4215,71.6302 79.0882,90.2969 111.5,109.5 Z"/></g>
<g><path style="opacity:1" fill="#383838" d="M 111.5,109.5 C 111.833,109.5 112.167,109.5 112.5,109.5C 112.5,147.5 112.5,185.5 112.5,223.5C 112.5,223.833 112.5,224.167 112.5,224.5C 112.167,224.5 111.833,224.5 111.5,224.5C 111.5,223.833 111.167,223.5 110.5,223.5C 111.493,185.573 111.827,147.573 111.5,109.5 Z"/></g>
</svg>
