<?xml version="1.0" encoding="UTF-8"?>
<!DOCTYPE svg PUBLIC "-//W3C//DTD SVG 1.1//EN" "http://www.w3.org/Graphics/SVG/1.1/DTD/svg11.dtd">
<svg xmlns="http://www.w3.org/2000/svg" version="1.1" width="960px" height="960px" style="shape-rendering:geometricPrecision; text-rendering:geometricPrecision; image-rendering:optimizeQuality; fill-rule:evenodd; clip-rule:evenodd" xmlns:xlink="http://www.w3.org/1999/xlink">
<g><path style="opacity:1" fill="#24acf0" d="M 849.5,66.5 C 806.239,67.4943 762.906,67.8276 719.5,67.5C 719.5,67.1667 719.5,66.8333 719.5,66.5C 719.5,60.5 719.5,54.5 719.5,48.5C 720.149,39.9732 718.149,32.3065 713.5,25.5C 712.557,22.8908 710.89,20.8908 708.5,19.5C 699.69,11.0493 689.356,8.0493 677.5,10.5C 673.274,11.2419 669.274,12.5752 665.5,14.5C 675.934,5.74098 688.101,1.40765 702,1.5C 707.935,1.628 713.768,2.46133 719.5,4C 763.29,24.063 806.623,44.8964 849.5,66.5 Z"/></g>
<g><path style="opacity:1" fill="#0076b5" d="M 677.5,10.5 C 689.356,8.0493 699.69,11.0493 708.5,19.5C 701.528,23.9792 696.028,29.9792 692,37.5C 689.394,47.3392 687.894,57.3392 687.5,67.5C 685.833,67.5 684.167,67.5 682.5,67.5C 683.284,82.4866 683.617,97.4866 683.5,112.5C 681.167,112.5 678.833,112.5 676.5,112.5C 676.5,127.5 676.5,142.5 676.5,157.5C 674.5,157.5 672.5,157.5 670.5,157.5C 670.5,172.5 670.5,187.5 670.5,202.5C 666.5,202.5 662.5,202.5 658.5,202.5C 658.5,217.5 658.5,232.5 658.5,247.5C 653.833,247.5 649.167,247.5 644.5,247.5C 644.5,262.5 644.5,277.5 644.5,292.5C 549.833,292.5 455.167,292.5 360.5,292.5C 415.174,241.826 470.174,191.493 525.5,141.5C 560.663,142.498 595.996,142.832 631.5,142.5C 631.5,127.5 631.5,112.5 631.5,97.5C 638.175,97.6663 644.842,97.4996 651.5,97C 650.597,87.2362 649.931,77.4029 649.5,67.5C 651.5,67.5 653.5,67.5 655.5,67.5C 654.634,57.8448 654.467,48.1782 655,38.5C 658.459,37.8666 661.959,37.2 665.5,36.5C 668.488,27.0202 673.154,18.5202 679.5,11C 678.906,10.5357 678.239,10.369 677.5,10.5 Z"/></g>
<g><path style="opacity:1" fill="#0176bb" d="M 677.5,10.5 C 678.239,10.369 678.906,10.5357 679.5,11C 673.154,18.5202 668.488,27.0202 665.5,36.5C 661.959,37.2 658.459,37.8666 655,38.5C 654.467,48.1782 654.634,57.8448 655.5,67.5C 653.5,67.5 651.5,67.5 649.5,67.5C 649.931,77.4029 650.597,87.2362 651.5,97C 644.842,97.4996 638.175,97.6663 631.5,97.5C 631.5,112.5 631.5,127.5 631.5,142.5C 595.996,142.832 560.663,142.498 525.5,141.5C 550.936,117.943 576.603,94.6092 602.5,71.5C 604.544,70.9688 606.211,69.8022 607.5,68C 618.495,67.5002 629.495,67.3335 640.5,67.5C 639.861,57.8198 639.194,48.1531 638.5,38.5C 646.899,29.7639 655.899,21.7639 665.5,14.5C 669.274,12.5752 673.274,11.2419 677.5,10.5 Z"/></g>
<g><path style="opacity:1" fill="#006fb4" d="M 708.5,19.5 C 710.89,20.8908 712.557,22.8908 713.5,25.5C 709.956,29.3966 706.289,33.2299 702.5,37C 700.567,37.2511 698.734,37.7511 697,38.5C 690.82,57.6676 688.32,77.3342 689.5,97.5C 688.167,97.5 686.833,97.5 685.5,97.5C 684.833,117.5 684.167,137.5 683.5,157.5C 681.833,157.5 680.167,157.5 678.5,157.5C 677.833,177.5 677.167,197.5 676.5,217.5C 674.5,217.5 672.5,217.5 670.5,217.5C 670.5,232.5 670.5,247.5 670.5,262.5C 669.167,262.5 667.833,262.5 666.5,262.5C 666.5,272.5 666.5,282.5 666.5,292.5C 663.833,292.5 661.167,292.5 658.5,292.5C 658.5,297.833 658.5,303.167 658.5,308.5C 618.833,338.5 579.167,368.5 539.5,398.5C 518.337,397.668 497.004,397.168 475.5,397C 462.549,387.717 449.882,378.05 437.5,368C 423.5,367.667 409.5,367.333 395.5,367C 376.167,352.333 356.833,337.667 337.5,323C 334.305,322.819 331.305,322.319 328.5,321.5C 338.543,311.123 349.21,301.456 360.5,292.5C 455.167,292.5 549.833,292.5 644.5,292.5C 644.5,277.5 644.5,262.5 644.5,247.5C 649.167,247.5 653.833,247.5 658.5,247.5C 658.5,232.5 658.5,217.5 658.5,202.5C 662.5,202.5 666.5,202.5 670.5,202.5C 670.5,187.5 670.5,172.5 670.5,157.5C 672.5,157.5 674.5,157.5 676.5,157.5C 676.5,142.5 676.5,127.5 676.5,112.5C 678.833,112.5 681.167,112.5 683.5,112.5C 683.617,97.4866 683.284,82.4866 682.5,67.5C 684.167,67.5 685.833,67.5 687.5,67.5C 687.894,57.3392 689.394,47.3392 692,37.5C 696.028,29.9792 701.528,23.9792 708.5,19.5 Z"/></g>
<g><path style="opacity:1" fill="#006fae" d="M 713.5,25.5 C 718.149,32.3065 720.149,39.9732 719.5,48.5C 717.591,51.8304 714.591,53.1637 710.5,52.5C 706.597,72.2738 704.93,92.2738 705.5,112.5C 704.5,112.5 703.5,112.5 702.5,112.5C 702.5,127.5 702.5,142.5 702.5,157.5C 700.833,157.5 699.167,157.5 697.5,157.5C 697.5,172.5 697.5,187.5 697.5,202.5C 696.167,202.5 694.833,202.5 693.5,202.5C 693.5,222.5 693.5,242.5 693.5,262.5C 691.833,262.5 690.167,262.5 688.5,262.5C 688.203,269.92 688.536,277.254 689.5,284.5C 679.386,292.731 669.053,300.731 658.5,308.5C 658.5,303.167 658.5,297.833 658.5,292.5C 661.167,292.5 663.833,292.5 666.5,292.5C 666.5,282.5 666.5,272.5 666.5,262.5C 667.833,262.5 669.167,262.5 670.5,262.5C 670.5,247.5 670.5,232.5 670.5,217.5C 672.5,217.5 674.5,217.5 676.5,217.5C 677.167,197.5 677.833,177.5 678.5,157.5C 680.167,157.5 681.833,157.5 683.5,157.5C 684.167,137.5 684.833,117.5 685.5,97.5C 686.833,97.5 688.167,97.5 689.5,97.5C 688.32,77.3342 690.82,57.6676 697,38.5C 698.734,37.7511 700.567,37.2511 702.5,37C 706.289,33.2299 709.956,29.3966 713.5,25.5 Z"/></g>
<g><path style="opacity:1" fill="#067dbb" d="M 638.5,38.5 C 639.194,48.1531 639.861,57.8198 640.5,67.5C 629.495,67.3335 618.495,67.5002 607.5,68C 606.211,69.8022 604.544,70.9688 602.5,71.5C 614.079,60.0432 626.079,49.0432 638.5,38.5 Z"/></g>
<g><path style="opacity:1" fill="#0069ae" d="M 719.5,48.5 C 719.5,54.5 719.5,60.5 719.5,66.5C 717.958,67.3007 716.292,67.634 714.5,67.5C 711.848,87.4055 710.515,107.405 710.5,127.5C 709.5,127.5 708.5,127.5 707.5,127.5C 706.833,147.5 706.167,167.5 705.5,187.5C 704.5,187.5 703.5,187.5 702.5,187.5C 701.833,207.5 701.167,227.5 700.5,247.5C 699.5,247.5 698.5,247.5 697.5,247.5C 697.832,257.522 697.499,267.522 696.5,277.5C 695.646,278.522 694.646,279.355 693.5,280C 693.728,280.399 694.062,280.565 694.5,280.5C 693.421,282.543 691.754,283.876 689.5,284.5C 688.536,277.254 688.203,269.92 688.5,262.5C 690.167,262.5 691.833,262.5 693.5,262.5C 693.5,242.5 693.5,222.5 693.5,202.5C 694.833,202.5 696.167,202.5 697.5,202.5C 697.5,187.5 697.5,172.5 697.5,157.5C 699.167,157.5 700.833,157.5 702.5,157.5C 702.5,142.5 702.5,127.5 702.5,112.5C 703.5,112.5 704.5,112.5 705.5,112.5C 704.93,92.2738 706.597,72.2738 710.5,52.5C 714.591,53.1637 717.591,51.8304 719.5,48.5 Z"/></g>
<g><path style="opacity:1" fill="#0069a7" d="M 719.5,66.5 C 719.5,66.8333 719.5,67.1667 719.5,67.5C 719.5,127.5 719.5,187.5 719.5,247.5C 719.5,252.5 719.5,257.5 719.5,262.5C 711.314,268.755 702.981,274.755 694.5,280.5C 694.062,280.565 693.728,280.399 693.5,280C 694.646,279.355 695.646,278.522 696.5,277.5C 697.499,267.522 697.832,257.522 697.5,247.5C 698.5,247.5 699.5,247.5 700.5,247.5C 701.167,227.5 701.833,207.5 702.5,187.5C 703.5,187.5 704.5,187.5 705.5,187.5C 706.167,167.5 706.833,147.5 707.5,127.5C 708.5,127.5 709.5,127.5 710.5,127.5C 710.515,107.405 711.848,87.4055 714.5,67.5C 716.292,67.634 717.958,67.3007 719.5,66.5 Z"/></g>
<g><path style="opacity:1" fill="#20aeec" d="M 849.5,66.5 C 877.377,79.1038 905.043,92.2705 932.5,106C 943.376,113.371 951.042,123.204 955.5,135.5C 956.222,139.506 957.055,143.506 958,147.5C 958.5,180.832 958.667,214.165 958.5,247.5C 878.833,247.5 799.167,247.5 719.5,247.5C 719.5,187.5 719.5,127.5 719.5,67.5C 762.906,67.8276 806.239,67.4943 849.5,66.5 Z"/></g>
<g><path style="opacity:1" fill="#018dd2" d="M 186.5,292.5 C 127.664,292.832 68.9976,292.499 10.5,291.5C 29.604,274.234 48.604,256.734 67.5,239C 79.228,231.49 91.8946,229.49 105.5,233C 109.059,234.228 112.392,235.894 115.5,238C 139.235,256.187 162.902,274.353 186.5,292.5 Z"/></g>
<g><path style="opacity:1" fill="#1fa8ed" d="M 719.5,247.5 C 799.167,247.5 878.833,247.5 958.5,247.5C 958.5,322.5 958.5,397.5 958.5,472.5C 879.167,472.5 799.833,472.5 720.5,472.5C 720.827,462.319 720.494,452.319 719.5,442.5C 719.5,382.5 719.5,322.5 719.5,262.5C 719.5,257.5 719.5,252.5 719.5,247.5 Z"/></g>
<g><path style="opacity:1" fill="#0088d3" d="M 10.5,291.5 C 68.9976,292.499 127.664,292.832 186.5,292.5C 199.051,301.602 211.385,310.935 223.5,320.5C 149.174,322.497 74.5075,323.164 -0.5,322.5C -0.5,318.5 -0.5,314.5 -0.5,310.5C 1.35292,303.129 5.01959,296.796 10.5,291.5 Z"/></g>
<g><path style="opacity:1" fill="#0088cd" d="M 223.5,320.5 C 242.807,334.48 261.807,348.814 280.5,363.5C 327.32,399.742 374.32,435.742 421.5,471.5C 330.335,472.499 239.002,472.833 147.5,472.5C 103.371,432.874 59.3706,393.04 15.5,353C 7.73685,346.278 2.40352,338.111 -0.5,328.5C -0.5,326.5 -0.5,324.5 -0.5,322.5C 74.5075,323.164 149.174,322.497 223.5,320.5 Z"/></g>
<g><path style="opacity:1" fill="#006fae" d="M 328.5,321.5 C 331.305,322.319 334.305,322.819 337.5,323C 356.833,337.667 376.167,352.333 395.5,367C 409.5,367.333 423.5,367.667 437.5,368C 449.882,378.05 462.549,387.717 475.5,397C 497.004,397.168 518.337,397.668 539.5,398.5C 520.052,413.731 500.385,428.731 480.5,443.5C 475.349,442.673 470.016,442.173 464.5,442C 445.167,427.333 425.833,412.667 406.5,398C 402.049,397.87 397.716,397.204 393.5,396C 374.833,381.667 356.167,367.333 337.5,353C 332.833,352.667 328.167,352.333 323.5,352C 318.284,347.903 312.951,344.069 307.5,340.5C 314.175,333.825 321.175,327.492 328.5,321.5 Z"/></g>
<g><path style="opacity:1" fill="#0069ae" d="M 307.5,340.5 C 312.951,344.069 318.284,347.903 323.5,352C 328.167,352.333 332.833,352.667 337.5,353C 356.167,367.333 374.833,381.667 393.5,396C 397.716,397.204 402.049,397.87 406.5,398C 425.833,412.667 445.167,427.333 464.5,442C 470.016,442.173 475.349,442.673 480.5,443.5C 476.117,447.214 471.45,450.547 466.5,453.5C 461.398,450.245 456.398,446.745 451.5,443C 447.713,442.84 444.046,442.174 440.5,441C 428.5,431.667 416.5,422.333 404.5,413C 402.048,412.71 399.715,412.044 397.5,411C 385.833,402 374.167,393 362.5,384C 359.289,382.847 355.956,382.18 352.5,382C 335.982,369.636 319.648,357.136 303.5,344.5C 304.5,342.833 305.833,341.5 307.5,340.5 Z"/></g>
<g><path style="opacity:1" fill="#0069a7" d="M 303.5,344.5 C 319.648,357.136 335.982,369.636 352.5,382C 355.956,382.18 359.289,382.847 362.5,384C 374.167,393 385.833,402 397.5,411C 399.715,412.044 402.048,412.71 404.5,413C 416.5,422.333 428.5,431.667 440.5,441C 444.046,442.174 447.713,442.84 451.5,443C 456.398,446.745 461.398,450.245 466.5,453.5C 462.742,457.592 458.409,460.926 453.5,463.5C 451.353,461.53 449.02,459.697 446.5,458C 443.377,457.794 440.377,457.127 437.5,456C 412.167,436.667 386.833,417.333 361.5,398C 358.167,397.667 354.833,397.333 351.5,397C 332.29,382.283 312.956,367.783 293.5,353.5C 296.231,349.766 299.564,346.766 303.5,344.5 Z"/></g>
<g><path style="opacity:1" fill="#0063a7" d="M 293.5,353.5 C 312.956,367.783 332.29,382.283 351.5,397C 354.833,397.333 358.167,397.667 361.5,398C 386.833,417.333 412.167,436.667 437.5,456C 440.377,457.127 443.377,457.794 446.5,458C 449.02,459.697 451.353,461.53 453.5,463.5C 452.421,465.543 450.754,466.876 448.5,467.5C 437.203,459.839 426.203,451.672 415.5,443C 413.833,442.667 412.167,442.333 410.5,442C 398.5,432.667 386.5,423.333 374.5,414C 371.167,413 367.833,412 364.5,411C 352.833,402 341.167,393 329.5,384C 327.608,383.027 325.608,382.36 323.5,382C 312.316,373.248 300.982,364.748 289.5,356.5C 290.795,355.512 292.128,354.512 293.5,353.5 Z"/></g>
<g><path style="opacity:1" fill="#0063a1" d="M 289.5,356.5 C 300.982,364.748 312.316,373.248 323.5,382C 325.608,382.36 327.608,383.027 329.5,384C 341.167,393 352.833,402 364.5,411C 367.833,412 371.167,413 374.5,414C 386.5,423.333 398.5,432.667 410.5,442C 412.167,442.333 413.833,442.667 415.5,443C 426.203,451.672 437.203,459.839 448.5,467.5C 444.975,471.183 440.975,474.35 436.5,477C 435.177,477.816 434.511,478.983 434.5,480.5C 429.909,477.915 425.576,474.915 421.5,471.5C 374.32,435.742 327.32,399.742 280.5,363.5C 283.767,361.573 286.767,359.239 289.5,356.5 Z"/></g>
<g><path style="opacity:1" fill="#1e9bec" d="M 955.5,135.5 C 957.235,139.041 958.569,142.707 959.5,146.5C 959.5,368.5 959.5,590.5 959.5,812.5C 955.887,829.551 946.887,843.051 932.5,853C 864.289,886.272 795.955,919.272 727.5,952C 707.015,960.424 687.348,958.924 668.5,947.5C 668.56,946.957 668.893,946.624 669.5,946.5C 672.991,948.132 676.658,949.132 680.5,949.5C 684.371,949.815 688.038,949.482 691.5,948.5C 707.43,944.736 716.596,934.736 719,918.5C 719.5,864.501 719.667,810.501 719.5,756.5C 719.5,741.5 719.5,726.5 719.5,711.5C 799.167,711.5 878.833,711.5 958.5,711.5C 958.5,631.833 958.5,552.167 958.5,472.5C 958.5,397.5 958.5,322.5 958.5,247.5C 958.667,214.165 958.5,180.832 958,147.5C 957.055,143.506 956.222,139.506 955.5,135.5 Z"/></g>
<g><path style="opacity:1" fill="#1fa2ed" d="M 719.5,442.5 C 720.494,452.319 720.827,462.319 720.5,472.5C 799.833,472.5 879.167,472.5 958.5,472.5C 958.5,552.167 958.5,631.833 958.5,711.5C 878.833,711.5 799.167,711.5 719.5,711.5C 719.5,706.5 719.5,701.5 719.5,696.5C 719.5,611.833 719.5,527.167 719.5,442.5 Z"/></g>
<g><path style="opacity:1" fill="#0082cd" d="M 421.5,471.5 C 425.576,474.915 429.909,477.915 434.5,480.5C 504.808,533.481 574.808,586.814 644.5,640.5C 644.5,649.167 644.5,657.833 644.5,666.5C 549.999,666.167 455.665,666.501 361.5,667.5C 334.535,643.87 307.868,619.87 281.5,595.5C 239.397,556.609 197.064,517.943 154.5,479.5C 151.861,477.527 149.527,475.194 147.5,472.5C 239.002,472.833 330.335,472.499 421.5,471.5 Z"/></g>
<g><path style="opacity:1" fill="#00629f" d="M 154.5,479.5 C 197.064,517.943 239.397,556.609 281.5,595.5C 273.167,601.5 264.833,607.5 256.5,613.5C 255.457,610.944 253.79,608.777 251.5,607C 240.201,597.369 229.201,587.369 218.5,577C 218.833,576.667 219.167,576.333 219.5,576C 209.167,566.333 198.833,556.667 188.5,547C 189.833,546.667 191.167,546.333 192.5,546C 182.132,535.964 171.466,526.297 160.5,517C 161.167,516.667 161.833,516.333 162.5,516C 154.629,508.626 146.629,501.459 138.5,494.5C 143.833,489.5 149.167,484.5 154.5,479.5 Z"/></g>
<g><path style="opacity:1" fill="#0063a7" d="M 138.5,494.5 C 146.629,501.459 154.629,508.626 162.5,516C 161.833,516.333 161.167,516.667 160.5,517C 171.466,526.297 182.132,535.964 192.5,546C 191.167,546.333 189.833,546.667 188.5,547C 198.833,556.667 209.167,566.333 219.5,576C 219.167,576.333 218.833,576.667 218.5,577C 229.201,587.369 240.201,597.369 251.5,607C 253.79,608.777 255.457,610.944 256.5,613.5C 251.804,617.521 246.804,621.188 241.5,624.5C 240.373,623.878 239.373,623.045 238.5,622C 240.577,621.808 242.577,621.308 244.5,620.5C 234.678,610.845 224.678,601.345 214.5,592C 217.833,591.667 221.167,591.333 224.5,591C 207.978,576.568 191.645,561.901 175.5,547C 177.5,546.667 179.5,546.333 181.5,546C 165.355,531.099 149.022,516.432 132.5,502C 135.167,501.667 137.833,501.333 140.5,501C 138.959,499.629 137.625,498.129 136.5,496.5C 136.833,495.5 137.5,494.833 138.5,494.5 Z"/></g>
<g><path style="opacity:1" fill="#0069a7" d="M 136.5,496.5 C 137.625,498.129 138.959,499.629 140.5,501C 137.833,501.333 135.167,501.667 132.5,502C 149.022,516.432 165.355,531.099 181.5,546C 179.5,546.333 177.5,546.667 175.5,547C 191.645,561.901 207.978,576.568 224.5,591C 221.167,591.333 217.833,591.667 214.5,592C 224.678,601.345 234.678,610.845 244.5,620.5C 242.577,621.308 240.577,621.808 238.5,622C 239.373,623.045 240.373,623.878 241.5,624.5C 238.373,627.898 234.707,630.565 230.5,632.5C 216.666,618.5 202.333,605 187.5,592C 191.167,591.667 194.833,591.333 198.5,591C 188.167,581.333 177.833,571.667 167.5,562C 171.245,562.035 171.912,561.035 169.5,559C 154.167,545 138.833,531 123.5,517C 125.833,516.667 128.167,516.333 130.5,516C 128.229,513.218 125.563,511.051 122.5,509.5C 126.539,504.46 131.206,500.127 136.5,496.5 Z"/></g>
<g><path style="opacity:1" fill="#0069ae" d="M 122.5,509.5 C 125.563,511.051 128.229,513.218 130.5,516C 128.167,516.333 125.833,516.667 123.5,517C 138.833,531 154.167,545 169.5,559C 171.912,561.035 171.245,562.035 167.5,562C 177.833,571.667 188.167,581.333 198.5,591C 194.833,591.333 191.167,591.667 187.5,592C 202.333,605 216.666,618.5 230.5,632.5C 192.749,661.889 154.749,691.055 116.5,720C 100.167,730 83.8333,730 67.5,720C 47.7615,701.717 27.9281,683.55 8,665.5C 4.10231,660.269 1.26898,654.603 -0.5,648.5C -0.5,642.5 -0.5,636.5 -0.5,630.5C 2.40352,620.889 7.73685,612.722 15.5,606C 51.0373,573.626 86.704,541.46 122.5,509.5 Z"/></g>
<g><path style="opacity:1" fill="#007cc7" d="M 644.5,640.5 C 659.738,650.738 674.404,661.738 688.5,673.5C 688.5,676.167 688.5,678.833 688.5,681.5C 686.833,681.5 685.167,681.5 683.5,681.5C 683.5,691.5 683.5,701.5 683.5,711.5C 681.833,711.5 680.167,711.5 678.5,711.5C 678.5,721.5 678.5,731.5 678.5,741.5C 676.833,741.5 675.167,741.5 673.5,741.5C 673.5,756.5 673.5,771.5 673.5,786.5C 671.167,786.5 668.833,786.5 666.5,786.5C 666.5,796.5 666.5,806.5 666.5,816.5C 663.833,816.5 661.167,816.5 658.5,816.5C 658.5,826.5 658.5,836.5 658.5,846.5C 653.833,846.5 649.167,846.5 644.5,846.5C 644.718,856.591 644.051,866.591 642.5,876.5C 625.325,876.17 608.325,876.503 591.5,877.5C 552.508,842.507 513.841,807.174 475.5,771.5C 527.5,771.5 579.5,771.5 631.5,771.5C 631.5,746.5 631.5,721.5 631.5,696.5C 635.833,696.5 640.167,696.5 644.5,696.5C 644.5,686.5 644.5,676.5 644.5,666.5C 644.5,657.833 644.5,649.167 644.5,640.5 Z"/></g>
<g><path style="opacity:1" fill="#007ccd" d="M 644.5,666.5 C 644.5,676.5 644.5,686.5 644.5,696.5C 640.167,696.5 635.833,696.5 631.5,696.5C 631.5,721.5 631.5,746.5 631.5,771.5C 579.5,771.5 527.5,771.5 475.5,771.5C 437.175,737.174 399.175,702.507 361.5,667.5C 455.665,666.501 549.999,666.167 644.5,666.5 Z"/></g>
<g><path style="opacity:1" fill="#0075c0" d="M 688.5,673.5 C 696.078,678.117 703.078,683.45 709.5,689.5C 707.656,691.279 706.99,693.612 707.5,696.5C 705.833,696.5 704.167,696.5 702.5,696.5C 702.5,711.5 702.5,726.5 702.5,741.5C 701.5,741.5 700.5,741.5 699.5,741.5C 699.5,751.5 699.5,761.5 699.5,771.5C 698.167,771.5 696.833,771.5 695.5,771.5C 695.5,781.5 695.5,791.5 695.5,801.5C 694.167,801.5 692.833,801.5 691.5,801.5C 691.5,816.5 691.5,831.5 691.5,846.5C 690.5,846.5 689.5,846.5 688.5,846.5C 687.834,856.486 687.501,866.486 687.5,876.5C 686.167,876.5 684.833,876.5 683.5,876.5C 682.696,886.479 682.696,896.479 683.5,906.5C 681.833,906.5 680.167,906.5 678.5,906.5C 678.379,917.521 681.712,927.354 688.5,936C 686.167,936.333 683.833,936.667 681.5,937C 683.952,941.618 687.286,945.451 691.5,948.5C 688.038,949.482 684.371,949.815 680.5,949.5C 673.827,941.535 668.827,932.535 665.5,922.5C 666.689,921.571 668.022,921.238 669.5,921.5C 668.32,901.509 668.32,881.509 669.5,861.5C 671.5,861.5 673.5,861.5 675.5,861.5C 677.166,821.524 678.166,781.524 678.5,741.5C 678.5,731.5 678.5,721.5 678.5,711.5C 680.167,711.5 681.833,711.5 683.5,711.5C 683.5,701.5 683.5,691.5 683.5,681.5C 685.167,681.5 686.833,681.5 688.5,681.5C 688.5,678.833 688.5,676.167 688.5,673.5 Z"/></g>
<g><path style="opacity:1" fill="#006eba" d="M 709.5,689.5 C 710.167,689.5 710.5,689.833 710.5,690.5C 709.751,741.694 708.084,792.86 705.5,844C 705.561,854.854 705.894,865.687 706.5,876.5C 705.167,876.5 703.833,876.5 702.5,876.5C 702.983,885.91 704.15,895.243 706,904.5C 707.754,906.25 709.921,906.917 712.5,906.5C 709.741,896.702 708.408,886.702 708.5,876.5C 709.5,876.5 710.5,876.5 711.5,876.5C 710.691,861.515 710.358,846.515 710.5,831.5C 711.5,831.5 712.5,831.5 713.5,831.5C 713.5,821.5 713.5,811.5 713.5,801.5C 714.833,801.5 716.167,801.5 717.5,801.5C 716.85,786.129 717.516,771.129 719.5,756.5C 719.667,810.501 719.5,864.501 719,918.5C 716.596,934.736 707.43,944.736 691.5,948.5C 687.286,945.451 683.952,941.618 681.5,937C 683.833,936.667 686.167,936.333 688.5,936C 681.712,927.354 678.379,917.521 678.5,906.5C 680.167,906.5 681.833,906.5 683.5,906.5C 682.696,896.479 682.696,886.479 683.5,876.5C 684.833,876.5 686.167,876.5 687.5,876.5C 687.501,866.486 687.834,856.486 688.5,846.5C 689.5,846.5 690.5,846.5 691.5,846.5C 691.5,831.5 691.5,816.5 691.5,801.5C 692.833,801.5 694.167,801.5 695.5,801.5C 695.5,791.5 695.5,781.5 695.5,771.5C 696.833,771.5 698.167,771.5 699.5,771.5C 699.5,761.5 699.5,751.5 699.5,741.5C 700.5,741.5 701.5,741.5 702.5,741.5C 702.5,726.5 702.5,711.5 702.5,696.5C 704.167,696.5 705.833,696.5 707.5,696.5C 706.99,693.612 707.656,691.279 709.5,689.5 Z"/></g>
<g><path style="opacity:1" fill="#006fb4" d="M 710.5,690.5 C 713.643,692.242 716.643,694.242 719.5,696.5C 719.5,701.5 719.5,706.5 719.5,711.5C 719.5,726.5 719.5,741.5 719.5,756.5C 717.516,771.129 716.85,786.129 717.5,801.5C 716.167,801.5 714.833,801.5 713.5,801.5C 713.5,811.5 713.5,821.5 713.5,831.5C 712.5,831.5 711.5,831.5 710.5,831.5C 710.358,846.515 710.691,861.515 711.5,876.5C 710.5,876.5 709.5,876.5 708.5,876.5C 708.408,886.702 709.741,896.702 712.5,906.5C 709.921,906.917 707.754,906.25 706,904.5C 704.15,895.243 702.983,885.91 702.5,876.5C 703.833,876.5 705.167,876.5 706.5,876.5C 705.894,865.687 705.561,854.854 705.5,844C 708.084,792.86 709.751,741.694 710.5,690.5 Z"/></g>
<g><path style="opacity:1" fill="#0075c7" d="M 678.5,741.5 C 678.166,781.524 677.166,821.524 675.5,861.5C 673.5,861.5 671.5,861.5 669.5,861.5C 668.32,881.509 668.32,901.509 669.5,921.5C 668.022,921.238 666.689,921.571 665.5,922.5C 668.827,932.535 673.827,941.535 680.5,949.5C 676.658,949.132 672.991,948.132 669.5,946.5C 668.893,946.624 668.56,946.957 668.5,947.5C 642.209,924.877 616.542,901.543 591.5,877.5C 608.325,876.503 625.325,876.17 642.5,876.5C 644.051,866.591 644.718,856.591 644.5,846.5C 649.167,846.5 653.833,846.5 658.5,846.5C 658.5,836.5 658.5,826.5 658.5,816.5C 661.167,816.5 663.833,816.5 666.5,816.5C 666.5,806.5 666.5,796.5 666.5,786.5C 668.833,786.5 671.167,786.5 673.5,786.5C 673.5,771.5 673.5,756.5 673.5,741.5C 675.167,741.5 676.833,741.5 678.5,741.5 Z"/></g>
</svg>
