<?xml version="1.0" standalone="no"?>
<!DOCTYPE svg PUBLIC "-//W3C//DTD SVG 20010904//EN"
 "http://www.w3.org/TR/2001/REC-SVG-20010904/DTD/svg10.dtd">
<svg version="1.0" xmlns="http://www.w3.org/2000/svg"
 width="512.000000pt" height="512.000000pt" viewBox="0 0 512.000000 512.000000"
 preserveAspectRatio="xMidYMid meet">

<g transform="translate(0.000000,512.000000) scale(0.100000,-0.100000)"
fill="#000000" stroke="none">
<path d="M1140 2560 l0 -1580 643 0 c366 0 689 4 752 10 877 83 1445 700 1445
1570 0 200 -28 376 -91 565 -191 574 -690 943 -1359 1004 -66 6 -386 11 -752
11 l-638 0 0 -1580z m1433 887 c250 -67 417 -199 523 -412 53 -109 80 -210 95
-361 29 -297 -49 -583 -206 -752 -114 -123 -233 -194 -403 -239 -91 -25 -114
-27 -384 -31 l-288 -4 0 917 0 917 283 -4 c265 -4 288 -6 380 -31z"/>
</g>
</svg>
